<?xml version="1.0" standalone="no"?>
<!DOCTYPE svg PUBLIC "-//W3C//DTD SVG 1.1//EN" "http://www.w3.org/Graphics/SVG/1.1/DTD/svg11.dtd" >
<svg xmlns="http://www.w3.org/2000/svg">
  <metadata>Created by iconfont</metadata>
  <defs>
  <font id="iconfont" horiz-adv-x="1024">
    <font-face
      font-family="iconfont"
      font-weight="400"
      font-stretch="normal"
      units-per-em="1024"
      ascent="896"
      descent="-128"
    />
      <missing-glyph />
      
      <glyph glyph-name="singlecheck" unicode="&#58982;" d="M512 384m-182.0444448 0a182.0444448 182.0444448 0 1 1 364.0888896 0 182.0444448 182.0444448 0 1 1-364.0888896 0ZM512 884.62222187a500.62222187 500.62222187 0 1 1 500.62222187-500.62222187A501.3504 501.3504 0 0 1 512 884.62222187z m0-910.22222187a409.6 409.6 0 1 0 409.6 409.6 410.10062187 410.10062187 0 0 0-409.6-409.6z"  horiz-adv-x="1024" />
      
      <glyph glyph-name="recordfill" unicode="&#59300;" d="M943.488 636c-10.176 5.632-22.592 5.312-32.48-0.864L800 565.632 800 608c0 52.928-43.072 96-96 96L160 704C107.072 704 64 660.928 64 608l0-448c0-52.928 43.072-96 96-96l544 0c52.928 0 96 43.072 96 96l0 38.88 111.648-66.368C916.672 129.504 922.336 128 928 128c5.472 0 10.912 1.408 15.808 4.192C953.824 137.888 960 148.512 960 160L960 608C960 619.648 953.696 630.368 943.488 636zM256 448c-35.296 0-64 28.704-64 64s28.704 64 64 64 64-28.704 64-64S291.296 448 256 448z"  horiz-adv-x="1024" />
      
      <glyph glyph-name="multiple-layers" unicode="&#59712;" d="M1019.2 574.4L520 864 19.2 574.4l500.8-320 499.2 320zM520 771.2l347.2-201.6-347.2-220.8-347.2 222.4L520 771.2z m0-593.6L97.6 448l-78.4-44.8 500.8-320 500.8 320-78.4 44.8-422.4-270.4z m0-171.2L97.6 276.8l-78.4-44.8 500.8-320 500.8 320-78.4 44.8-422.4-270.4z"  horiz-adv-x="1024" />
      
      <glyph glyph-name="video" unicode="&#59245;" d="M701.09234188 715.4017975300001a82.85044939 82.85044939 0 0 0 82.85044938-82.85044938l-0.02761638-43.57933638 63.79484602 49.71026964A82.85044939 82.85044939 0 0 0 981.48588027 573.2856604599999v-438.03032589a82.85044939 82.85044939 0 0 0-133.77585937-65.34138817l-63.79484602 49.71026962v-34.30008605a82.85044939 82.85044939 0 0 0-82.85044939-82.85044938H125.36456912a82.85044939 82.85044939 0 0 0-82.85044939 82.85044938V632.55134815a82.85044939 82.85044939 0 0 0 82.85044939 82.85044938h575.72777276z m0-82.85044938H125.36456912v-547.19960178h575.72777276l-0.1657009 204.00542405L898.63543088 135.28295095V573.31327683l-197.68117222-153.96375133 0.13808322 213.20182265zM346.29910124 532.4680053a55.23363335 55.23363335 0 0 0 29.43952591-8.5059799l173.29552373-109.16927462a55.23363335 55.23363335 0 0 0 0.41425223-93.20675555l-173.29552371-111.35100397A55.23363335 55.23363335 0 0 0 291.06546788 256.71409337v220.52027857a55.23363335 55.23363335 0 0 0 55.23363336 55.23363336z m27.61681603-105.27530479v-119.91221664l94.22857862 60.53606211L373.91591727 427.19270051z"  horiz-adv-x="1024" />
      
      <glyph glyph-name="camera" unicode="&#59861;" d="M512 362.66666699999996m-106.666667 0a106.666667 106.666667 0 1 1 213.333334 0 106.666667 106.666667 0 1 1-213.333334 0ZM853.333333 618.666667h-136.149333l-36.778667 73.536A21.333333 21.333333 0 0 1 661.333333 704H362.666667a21.333333 21.333333 0 0 1-19.072-11.797333L306.794667 618.666667H170.666667a85.418667 85.418667 0 0 1-85.333334-85.333334v-384a85.418667 85.418667 0 0 1 85.333334-85.333333h682.666666a85.418667 85.418667 0 0 1 85.333334 85.333333V533.333333a85.418667 85.418667 0 0 1-85.333334 85.333334zM512 213.33333300000004a149.333333 149.333333 0 1 0 149.333333 149.333334 149.504 149.504 0 0 0-149.333333-149.333334z"  horiz-adv-x="1024" />
      
      <glyph glyph-name="meeting_line" unicode="&#58973;" d="M652.60975389 317.57591892999994a187.17032107 187.17032107 0 0 1 186.98833707 186.89734507 187.17032107 187.17032107 0 0 1-186.98833707 186.98833813 187.17032107 187.17032107 0 0 1-186.98833706-186.98833813c0-104.77716267 82.1201824-186.89734507 186.98833706-186.89734507m-2.54777281-79.2994336c-125.61430613 0-235.98747093-90.35494827-262.37511999-214.78635946a37.62514667 37.62514667 0 0 0-38.08010667-30.61877227l-4.09463466-0.04549547c-12.5113856 1.81983787-21.6560704 7.051872-27.66153494 15.87808534a39.71796053 39.71796053 0 0 0-6.36943253 30.2548032c20.20019947 103.18480533 89.49052587 192.90281067 185.3504832 240.08210666l9.64514027 4.68608214-8.7807168 6.18744853a263.69450133 263.69450133 0 0 0-111.37407574 214.649872A264.01297387 264.01297387 0 0 0 650.06198108 768.21326187c145.4050432 0 263.78549333-118.2894592 263.78549334-263.64900587 0-86.66977707-41.5377984-167.06111253-111.1465952-215.05933547l-8.87170986-6.14195306 9.73613226-4.8225696c97.31582827-48.45318187 164.78631573-135.8053984 185.07750827-239.4906592 3.63967573-21.61057387-9.73613227-41.76527787-30.39129173-45.85991254a38.67155413 38.67155413 0 0 0-45.8599136 30.57327467c-26.38764907 124.20393173-136.5788288 214.51338453-262.32962348 214.51338453M930.49899123 793.2815285300001c107.14295253 0 191.0829728-89.44502933 191.08297172-203.63985386 0-60.60059947-17.65242667-111.96552213-51.18293866-148.58975894l-5.3685216-5.91447253 6.91538347-3.91265173c62.19295787-35.48683733 103.5032768-94.04011947 119.47235412-169.47239787 3.7761632-18.6533376-9.73613227-41.21932693-26.16016959-45.4959456l-9.64514027-0.545952a37.7616352 37.7616352 0 0 0-37.94361814 30.8917472c-16.60602027 78.43501013-67.78895893 127.93459947-145.5870272 139.53606613-5.4595136 0-14.46771093 3.8671552-21.38309439 12.37489707a38.8990336 38.8990336 0 0 0-8.1892704 32.3931136c-0.31847147 18.7443296 10.60055573 33.07555307 28.07099839 36.57874027 48.5896704 11.37398613 74.29488 53.594224 74.29488 122.1566144 0 74.70434347-47.04280747 126.88819307-114.37680745 126.88819306-22.6114848 0-38.39857813 15.7415968-38.39857814 38.35308267 0 22.24751787 16.15106027 38.39857813 38.39857813 38.39857813M374.53853362 793.2815285300001c22.65698133 0 38.44407467-15.78709333 38.44407361-38.39857813s-15.78709333-38.35308267-38.39857814-38.35308267c-65.15019413 0-114.28581547-54.59513493-114.28581546-126.93368853 0-31.30121067 7.27935147-105.8690656 75.1593024-122.29310293 17.28845973-3.45769173 29.34488533-18.19837867 30.02732373-37.1246912a38.85353813 38.85353813 0 0 0-30.48228373-43.90358827c-76.9336448-11.6924576-128.43505493-61.4195264-145.17756268-140.03652053a37.5796512 37.5796512 0 0 0-38.03461119-30.52778027l-4.09463467-0.09099093c-12.60237653 1.91082987-21.6560704 7.09736747-27.75252694 15.9235808a40.036432 40.036432 0 0 0-6.36943253 30.30029973C127.04058803 334.68239467 169.44280989 394.87353067 233.13713416 431.13379947l6.96087893 3.9581472-5.4595136 5.9144736C201.15348402 477.17569707 183.45556083 528.58611627 183.45556083 589.6416746699999 183.45556083 705.74732907 265.66673523 793.2815285300001 374.53853362 793.2815285300001"  horiz-adv-x="1365" />
      
      <glyph glyph-name="shuangjiantoushang" unicode="&#59003;" d="M474.3 415.3L113.9 59.4c-20.2-19-21.2-50.7-2.3-71 0.7-0.8 1.5-1.5 2.3-2.3 9.5-10.4 23-16.1 37.1-15.7 14.1-0.4 27.6 5.3 37.1 15.7l323.3 319.1 323.3-319.1c9.5-10.4 23.1-16.1 37.1-15.7 14.1-0.4 27.6 5.3 37.1 15.7 20.2 19 21.2 50.7 2.3 71-0.7 0.8-1.5 1.5-2.3 2.3L548.5 415.3c-19.9 20.5-52.6 21-73.1 1.1-0.4-0.3-0.8-0.7-1.1-1.1z m0 366.3L113.9 425.8c-20.2-19-21.2-50.7-2.3-71 0.7-0.8 1.5-1.5 2.3-2.3 9.5-10.4 23-16.1 37.1-15.7 14.1-0.4 27.6 5.3 37.1 15.6l323.3 319.2 323.3-319.2c9.5-10.4 23.1-16.1 37.1-15.6 14-0.4 27.6 5.3 37.1 15.6 20.2 19 21.2 50.7 2.3 71-0.7 0.8-1.5 1.5-2.3 2.3L548.5 781.6c-19.9 20.5-52.6 21-73.1 1.1l-1.1-1.1z"  horiz-adv-x="1024" />
      
      <glyph glyph-name="shang" unicode="&#58911;" d="M551.15 390.22529297c-21.59912109 20.17529297-56.62529297 20.17529297-78.22617188-1e-8l-394.72470703-367.94970702c-21.59912109-20.17529297-21.6-52.94970703 0-73.125 21.59912109-20.17529297 56.62529297-20.17529297 78.22617188 0l355.57470703 331.425 355.5-331.425c21.59912109-20.17529297 56.62529297-20.17529297 78.3 0 21.59912109 20.17529297 21.6 52.94970703 0 73.125l-394.65 367.94970703zM156.5 377.77470702999995l355.5 331.49970703 355.5-331.425c21.59912109-20.17529297 56.62529297-20.17529297 78.3-1e-8 21.59912109 20.17529297 21.6 52.94970703 0 73.12500001l-394.65 367.94970703c-21.59912109 20.17529297-56.62529297 20.17529297-78.3 0l-394.64912109-368.02529297c-21.59912109-20.17529297-21.6-52.94970703 0-73.125s56.62529297-20.17529297 78.3 0v0zM156.5 268.20058594z"  horiz-adv-x="1025" />
      
      <glyph glyph-name="plus" unicode="&#58910;" d="M469.333 682.667l85.333 0 0-597.333-85.333 0 0 597.333zM213.333 426.667l597.333 0 0-85.333-597.333 0 0 85.333z"  horiz-adv-x="1024" />
      
      <glyph glyph-name="search_becomes_larger" unicode="&#58908;" d="M640 440H521.6V576a32 32 0 0 1-64 0v-136H320a32 32 0 0 1 0-64h137.6v-120a32 32 0 1 1 64 0V376H640a32 32 0 1 1 0 64zM919.264-9.984L780.352 128.928C851.808 203.68 896 304.672 896 416c0 229.376-186.624 416-416 416S64 645.376 64 416s186.624-416 416-416c95.008 0 182.432 32.384 252.544 86.208l141.44-141.44a31.904 31.904 0 0 1 45.248 0 32 32 0 0 1 0.032 45.248zM128 416c0 194.08 157.92 352 352 352s352-157.92 352-352-157.92-352-352-352-352 157.92-352 352z"  horiz-adv-x="1024" />
      
      <glyph glyph-name="jiqiren" unicode="&#58909;" d="M32.698609-89.84665500000006h33.384176a19.076672 19.076672 0 1 0 0-38.153345H32.698609a19.076672 19.076672 0 0 0 0 38.153345z m879.911509 0h78.691273a19.076672 19.076672 0 0 0 0-38.153345h-78.691273a19.076672 19.076672 0 0 0 0 38.153345z m-763.066892 0h689.144787a19.076672 19.076672 0 0 0 0-38.153345H149.543226a19.076672 19.076672 0 0 0 0 38.153345zM688.638063 477.016662c-73.922105-47.03592-276.611748-47.03592-350.533854 0A310.246306 310.246306 0 0 1 202.802911 220.56657199999995c0-171.535053 139.057018-310.592071 310.592071-310.592071s310.592071 139.057018 310.59207 310.592071a310.246306 310.246306 0 0 1-135.348989 256.45009zM513.991128 112.66414399999996a107.306282 107.306282 0 1 0 107.306281 107.306282 107.306282 107.306282 0 0 0-107.306281-107.306282zM513.394982-99.56383500000004a320.130407 320.130407 0 1 0 163.2367 595.573709 321.847307 321.847307 0 0 0 115.163486-117.190383 9.538336 9.538336 0 0 0-16.572859-9.442953A300.946428 300.946428 0 0 1 513.394982 521.620306a301.053735 301.053735 0 1 1 301.053734-301.053734 9.538336 9.538336 0 0 0 19.076673 0A320.130407 320.130407 0 0 0 513.394982-99.56383500000004z m305.107527 368.930919a9.538336 9.538336 0 0 0-9.359492 7.761821 299.432218 299.432218 0 0 1-18.671293 61.379193 9.538336 9.538336 0 1 0 17.550538 7.475671 318.568504 318.568504 0 0 0 19.863585-65.289911 9.538336 9.538336 0 0 0-9.383338-11.326774zM513.991128 115.54949099999999A104.420935 104.420935 0 1 1 409.570193 219.97042599999997a104.420935 104.420935 0 0 1 104.420935-104.420935z m0-48.192444a152.613378 152.613378 0 1 0 152.613378 152.613379 152.613378 152.613378 0 0 0-152.613378-152.613379zM515.18342 219.97042599999997m-107.306282 0a107.306282 107.306282 0 1 1 214.612563 0 107.306282 107.306282 0 1 1-214.612563 0ZM512.798836 55.43412699999999c-91.389183 0-165.728591 74.35133-165.728591 165.728591s74.339407 165.728591 165.728591 165.72859 165.728591-74.35133 165.72859-165.72859-74.35133-165.728591-165.72859-165.728591z m0 312.380509a146.651918 146.651918 0 1 1 146.651918-146.651918 146.818839 146.818839 0 0 1-146.651918 146.651918zM513.991128 103.125808a116.844618 116.844618 0 1 0 116.844617 116.844618 116.97577 116.97577 0 0 0-116.844617-116.844618z m0 214.612563a97.767946 97.767946 0 1 1 97.767945-97.767945 97.875252 97.875252 0 0 1-97.767945 97.767945zM716.680771 516.1715320000001c0 101.034826-90.745346 182.945287-202.689643 182.945287s-202.689643-81.910462-202.689643-182.945287 405.379286-101.034826 405.379286 0zM513.991128 432.198405c-54.094289 0-104.64747 6.903371-142.359667 19.43436-57.754625 19.195901-69.868312 46.427851-69.868313 65.886057 0 106.11399 95.204518 192.483623 212.22798 192.483623s212.227979-86.345788 212.227979-192.483623c0-58.934994-106.590906-85.320417-212.227979-85.320417z m0 258.727368c-106.507446 0-193.151307-77.797054-193.151307-173.406951 0-37.771811 83.043139-66.243745 193.151307-66.243745s193.151307 28.471933 193.151307 66.243745c0 95.609897-86.643861 173.406951-193.151307 173.406951zM573.248041 700.464109h-31.476509c-2.169971 0-3.934564 2.134203-3.934564 4.769168v19.076672c0 2.634965 1.764592 4.769168 3.934564 4.769168h31.476509c2.169971 0 3.934564-2.134203 3.934564-4.769168v-19.076672c0-2.634965-1.764592-4.769168-3.934564-4.769168zM573.248041 690.9257729999999h-31.476509c-7.427979 0-13.4729 6.414531-13.4729 14.307504v19.076672c0 7.892973 6.044921 14.307504 13.4729 14.307505h31.476509c7.427979 0 13.4729-6.414531 13.4729-14.307505v-19.076672c0-7.892973-6.044921-14.307504-13.4729-14.307504z m-25.872737 19.076672h20.268964v9.538336h-20.268964zM568.693485 729.079117h-22.367398a4.101485 4.101485 0 0 0-3.719951 4.387635V808.151924a4.101485 4.101485 0 0 0 3.719951 4.387635h22.355476a4.101485 4.101485 0 0 0 3.719951-4.387635v-74.673249a4.101485 4.101485 0 0 0-3.708029-4.399558zM568.693485 719.540781H546.33801c-7.30875 0-13.27021 6.24761-13.27021 13.925971V808.151924c0 7.678361 5.96146 13.925971 13.27021 13.925971h22.355475c7.296827 0 13.258287-6.24761 13.258288-13.925971v-74.673249c0-7.690284-5.96146-13.937894-13.258288-13.937894z m-16.549013 19.076673h10.730628V803.001223h-10.730628zM490.741433 700.464109h-17.88438a2.873424 2.873424 0 0 0-2.98073 2.766117v46.928614a2.873424 2.873424 0 0 0 2.98073 2.766118h17.88438a2.873424 2.873424 0 0 0 2.98073-2.766118v-46.940536a2.873424 2.873424 0 0 0-2.98073-2.754195zM490.741433 690.9257729999999h-17.88438a12.423683 12.423683 0 0 0-12.519066 12.304453v46.928614a12.423683 12.423683 0 0 0 12.519066 12.304454h17.88438a12.423683 12.423683 0 0 0 12.519067-12.304454v-46.940536a12.423683 12.423683 0 0 0-12.519067-12.292531z m-11.326774 19.076672h4.769168v33.384177h-4.769168zM565.68891 812.229563h-15.607103a4.149176 4.149176 0 0 0-3.898795 4.363789V873.346452c0 7.22529 5.246085 13.115212 11.708308 13.115212s11.708308-5.878 11.708307-13.115212v-56.765023a4.149176 4.149176 0 0 0-3.910717-4.351866zM565.68891 802.691227h-15.607103a13.687512 13.687512 0 0 0-13.437131 13.914047V873.346452c0 12.483297 9.538336 22.653548 21.246644 22.653548s21.246644-10.158328 21.246644-22.653548v-56.765023a13.699435 13.699435 0 0 0-13.449054-13.890202z m-9.967562 19.076672h4.32802V873.346452c0 2.146126-1.299598 3.576876-2.169971 3.576876s-2.169971-1.418828-2.169972-3.576876zM488.15416 746.963498h-12.709833c-1.752669 0-3.18342 2.193817-3.18342 4.912243V815.699133c0 8.119509 4.280328 14.724806 9.538336 14.724806s9.538336-6.605298 9.538336-14.724806v-63.823392c0-2.718426-1.418828-4.912243-3.183419-4.912243zM488.15416 737.425162h-12.709833c-7.153752 0-12.721756 6.342994-12.721756 14.450579V815.699133c0 13.604052 8.346044 24.263143 19.076672 24.263142s19.076672-10.659091 19.076672-24.263142v-63.823392c0-8.107586-5.59185-14.450579-12.721755-14.450579zM513.394982 556.792921m-55.441579 0a55.441579 55.441579 0 1 1 110.883158 0 55.441579 55.441579 0 1 1-110.883158 0ZM513.394982 491.813006a64.979915 64.979915 0 1 0 64.979915 64.979915 65.051453 65.051453 0 0 0-64.979915-64.979915z m0 110.883157a45.903243 45.903243 0 1 1 45.903242-45.903242 45.950934 45.950934 0 0 1-45.903242 45.903242zM608.182197 510.889678m-26.230424 0a26.230424 26.230424 0 1 1 52.460849 0 26.230424 26.230424 0 1 1-52.460849 0ZM608.182197 475.120918a35.768761 35.768761 0 1 0 35.768761 35.76876 35.768761 35.768761 0 0 0-35.768761-35.76876z m0 52.460848a16.692088 16.692088 0 1 1 16.692088-16.692088 16.692088 16.692088 0 0 1-16.692088 16.692088zM513.394982 220.56657199999995m-39.941783 0a39.941783 39.941783 0 1 1 79.883565 0 39.941783 39.941783 0 1 1-79.883565 0ZM513.394982 171.086453a49.480119 49.480119 0 1 0 49.480118 49.480119 49.539733 49.539733 0 0 0-49.480118-49.480119z m0 79.883565a30.403446 30.403446 0 1 1 30.403446-30.403446 30.439215 30.439215 0 0 1-30.403446 30.403446z"  horiz-adv-x="1024" />
      
      <glyph glyph-name="home" unicode="&#58907;" d="M880.702 332.65999999999997c-2.501-3.002-6.503-5.004-10.506-5.504h-1.501c-4.002 0-7.504 1-10.505 3.502L512 619.317 165.81 330.658c-3.502-2.502-7.504-4.002-12.007-3.502-4.002 0.5-8.004 2.502-10.506 5.504l-31.017 37.02c-5.503 6.504-4.502 17.009 2.001 22.512l359.697 299.665c21.012 17.51 55.03 17.51 76.042 0L672.088 589.8v97.554c0 9.005 7.004 16.009 16.009 16.009h96.053c9.005 0 16.009-7.004 16.009-16.009v-204.112l109.561-91.05c6.503-5.503 7.504-16.008 2.001-22.512l-31.019-37.02z m-80.544-237.631c0-17.51-14.508-32.018-32.018-32.018H576.035V255.11699999999996h-128.07v-192.105H255.859c-17.51 0-32.018 14.508-32.018 32.018V335.15999999999997c0 1.002 0.5 2.002 0.5 3.002L512 575.2919999999999l287.658-237.13c0.5-1 0.5-2 0.5-3.002v-240.131z"  horiz-adv-x="1024" />
      
      <glyph glyph-name="search" unicode="&#58983;" d="M451.393 626.7529999999999c-99.712 0-180.54-80.828-180.54-180.54 0-99.674 80.828-180.54 180.54-180.54s180.54 80.866 180.54 180.54c0 99.713-80.828 180.54-180.54 180.54z m0-320.959c-77.419 0-140.42 63-140.42 140.42s63 140.42 140.42 140.42 140.42-63 140.42-140.42-63.001-140.42-140.42-140.42zM809.044 202.04499999999996l-125.59 125.571c18.237 35.615 28.718 75.851 28.718 118.597 0 144.063-116.755 260.78-260.78 260.78-144.005 0-260.78-116.717-260.78-260.78s116.775-260.78 260.78-260.78c42.746 0 82.982 10.499 118.597 28.718l125.571-125.57c15.671-15.673 36.202-23.508 56.732-23.508 20.529 0 41.081 7.835 56.752 23.508 31.324 31.305 31.324 82.121 0 113.464z m-28.367-85.098c-7.581-7.561-17.669-11.753-28.385-11.753-10.716 0-20.784 4.152-28.367 11.753L598.356 242.51800000000003l-20.648 20.648-25.996-13.282c-31.54-16.142-65.293-24.331-100.32-24.331-121.672 0-220.66 98.968-220.66 220.66s98.988 220.66 220.66 220.66 220.66-98.968 220.66-220.66c0-35.065-8.188-68.8-24.311-100.3l-13.322-26.016 20.668-20.648L780.659 173.67999999999995c7.581-7.563 11.753-17.671 11.753-28.367 0-10.735-4.152-20.804-11.735-28.366z"  horiz-adv-x="1024" />
      
      <glyph glyph-name="up" unicode="&#60718;" d="M967.111111 384c0 251.363556-203.747556 455.111111-455.111111 455.111111s-455.111111-203.747556-455.111111-455.111111c0-251.363556 203.747556-455.111111 455.111111-455.111111s455.111111 203.747556 455.111111 455.111111zM170.666667 384c0 188.216889 153.116444 341.333333 341.333333 341.333333s341.333333-153.116444 341.333333-341.333333-153.116444-341.333333-341.333333-341.333333-341.333333 153.116444-341.333333 341.333333zM568.775111 212.792889l0 206.677333 73.585778-74.922667c22.272-22.044444 58.339556-22.044444 80.611556 0 22.243556 22.044444 22.243556 57.770667 0 79.843556l-168.789333 170.666667c-10.695111 10.581333-25.173333 16.526222-40.305778 16.526222-0.654222 0-1.308444-0.028444-1.962667-0.056889-0.654222 0.028444-1.308444 0.056889-1.934222 0.056889-15.132444 0-29.610667-5.944889-40.305778-16.526222l-168.789333-170.666667c-22.243556-22.044444-22.243556-57.770667 0-79.843556s58.339556-22.044444 80.611556 0l73.585778 74.922667 0-206.677333c0-31.118222 25.230222-56.32 56.32-56.32l0.995556 0c31.118222 0 56.32 25.230222 56.32 56.32z"  horiz-adv-x="1024" />
      
      <glyph glyph-name="mjiantou-copy" unicode="&#58896;" d="M298.04794667 389.33333333l466.32096-466.29184-40.54176-40.57088-506.86384 506.86384 506.86384 506.86384001 40.54176-40.57088001z"  horiz-adv-x="1024" />
      
      <glyph glyph-name="shouye" unicode="&#58897;" d="M759.7-59.8H586.9c-18.1 0-32.1 13.9-32.1 32.1v276h-99v-276c0-18.1-13.9-32.1-32.1-32.1h-170c-53 0-96.2 43.2-96.2 96.2V317.9h-18.1c-41.8 0-75.3 33.5-75.3 75.3 0 19.5 7 37.6 20.9 51.6L409.7 789c53 55.7 140.8 58.5 197.9 5.6 1.4-2.8 2.8-4.2 5.6-5.6l324.7-344.2c29.3-29.3 27.9-76.7-1.4-105.9-13.9-13.9-33.4-20.9-53-20.9h-27.9v-281.5c0.2-53.1-43-96.3-95.9-96.3z m-139.4 64.1h139.4c18.1 0 33.4 15.3 33.4 33.4V349.9c0 18.1 13.9 32.1 32.1 32.1h59.9c4.2 0 8.4 2.8 9.8 7 1.4 4.2 1.4 8.4-2.8 12.5L565.9 744.3c-29.3 30.7-76.7 32.1-107.3 2.8-1.4 0-2.8-1.4-2.8-2.8L131.1 401.5c-4.2-4.2-4.2-11.1 0-15.3 2.8-2.8 5.6-2.8 8.4-2.8H191c18.1 0 32.1-13.9 32.1-32.1v-313.6c0-18.1 15.3-33.4 33.4-33.4h138V248.2c0 36.2 29.3 64.1 64.1 64.1h99c36.2 0 64.1-29.3 64.1-64.1l-1.4-243.9z"  horiz-adv-x="1024" />
      
      <glyph glyph-name="yonghu" unicode="&#59171;" d="M476.002462 871.581538c166.124308 0 300.819692-129.693538 300.819692-289.673846 0-140.878769-104.369231-258.244923-242.727385-284.317538a34.816 34.816 0 0 0-15.675077-5.356308l-3.741538-0.157538-7.876923 0.118154c-211.889231 0-385.772308-166.163692-392.940308-375.296-0.630154-18.235077-16.502154-32.531692-35.446154-31.901539-18.904615 0.590769-33.752615 15.872-33.122461 34.107077 6.301538 184.950154 124.612923 341.464615 290.028307 406.685538-95.271385 48.561231-160.177231 145.053538-160.17723 256.118154 0 159.980308 134.695385 289.673846 300.859077 289.673846z m0-66.087384c-128.275692 0-232.211692-100.115692-232.211693-223.586462 0-123.510154 103.975385-223.625846 232.211693-223.625846s232.172308 100.115692 232.172307 223.625846c0 123.470769-103.975385 223.586462-232.172307 223.586462zM742.754462 215.670154m26.427076 0l179.554462 0q26.427077 0 26.427077-26.427077l0-0.039385q0-26.427077-26.427077-26.427077l-179.554462 0q-26.427077 0-26.427076 26.427077l0 0.039385q0 26.427077 26.427076 26.427077ZM655.596308 84.440615m26.427077 0l266.712615 0q26.427077 0 26.427077-26.427077l0-0.039384q0-26.427077-26.427077-26.427077l-266.712615 0q-26.427077 0-26.427077 26.427077l0 0.039384q0 26.427077 26.427077 26.427077ZM655.596308-41.393231m26.427077 0l266.712615 0q26.427077 0 26.427077-26.427077l0-0.039384q0-26.427077-26.427077-26.427077l-266.712615 0q-26.427077 0-26.427077 26.427077l0 0.039384q0 26.427077 26.427077 26.427077Z"  horiz-adv-x="1024" />
      
      <glyph glyph-name="category" unicode="&#58905;" d="M315.0848 344.6272H157.5424C70.8864 344.6272 0 273.7152 0 187.08479999999997v-157.5424C0-57.11360000000002 70.912-128 157.5424-128h157.5424c86.6304 0 157.5424 70.912 157.5424 157.5424v157.5424c0 86.6304-70.912 157.5424-157.5424 157.5424z m78.7712-315.0848a79.0016 79.0016 0 0 0-78.7712-78.7712H157.5424a79.0016 79.0016 0 0 0-78.7712 78.7712v157.5424a79.0016 79.0016 0 0 0 78.7712 78.7712h157.5424a79.0016 79.0016 0 0 0 78.7712-78.7712v-157.5424zM866.4576 896h-157.5424c-86.6304 0-157.5424-70.912-157.5424-157.5424v-157.5424c0-86.6304 70.912-157.5424 157.5424-157.5424h157.5424c86.656 0 157.5424 70.912 157.5424 157.5424V738.4576C1024 825.1136 953.088 896 866.4576 896z m78.7712-315.0848a79.0016 79.0016 0 0 0-78.7712-78.7712h-157.5424a79.0016 79.0016 0 0 0-78.7712 78.7712V738.4576a79.0016 79.0016 0 0 0 78.7712 78.7712h157.5424a79.0016 79.0016 0 0 0 78.7712-78.7712v-157.5424z m-78.7712-236.288h-157.5424c-86.6304 0-157.5424-70.912-157.5424-157.5424v-157.5424c0-86.656 70.912-157.5424 157.5424-157.5424h157.5424C953.1136-128 1024-57.087999999999965 1024 29.542400000000043v157.5424c0 86.6304-70.912 157.5424-157.5424 157.5424z m78.7712-315.0848a79.0016 79.0016 0 0 0-78.7712-78.7712h-157.5424a79.0016 79.0016 0 0 0-78.7712 78.7712v157.5424a79.0016 79.0016 0 0 0 78.7712 78.7712h157.5424a79.0016 79.0016 0 0 0 78.7712-78.7712v-157.5424zM315.0848 896H157.5424C70.8864 896 0 825.088 0 738.4576v-157.5424c0-86.6304 70.912-157.5424 157.5424-157.5424h157.5424c86.6304 0 157.5424 70.912 157.5424 157.5424V738.4576c0 86.656-70.912 157.5424-157.5424 157.5424z m78.7712-315.0848a79.0016 79.0016 0 0 0-78.7712-78.7712H157.5424a79.0016 79.0016 0 0 0-78.7712 78.7712V738.4576a79.0016 79.0016 0 0 0 78.7712 78.7712h157.5424a79.0016 79.0016 0 0 0 78.7712-78.7712v-157.5424z"  horiz-adv-x="1024" />
      
      <glyph glyph-name="gouwuche" unicode="&#59512;" d="M243.712 151.552h669.696c15.872 1.024 28.672 13.824 29.696 29.696 0 0 46.08 255.488 67.072 431.616 6.144 48.64-16.896 72.704-61.952 72.704H217.088l-12.288 104.448c-0.512 15.36-12.288 28.16-28.16 29.696H42.496c-18.944-0.512-33.28-16.384-32.768-35.328 1.024-17.408 14.848-31.744 32.768-32.256H147.456l68.096-570.88c0-15.872 12.288-28.672 28.16-29.696z m701.952 467.456c-17.92-141.312-48.128-330.24-59.904-400.384H272.896l-48.128 400.384h720.896zM276.992 83.968c-36.864 0-66.56-30.208-66.56-67.072 0-36.864 30.208-66.56 67.072-66.56 36.864 0 66.56 29.696 66.56 66.56-0.512 37.376-30.208 67.072-67.072 67.072z m603.648 0c-36.864 0-66.56-30.208-66.56-67.072 0-36.864 30.208-66.56 67.072-66.56 36.864 0 66.56 29.696 66.56 66.56-0.512 37.376-30.208 67.072-67.072 67.072z"  horiz-adv-x="1024" />
      
      <glyph glyph-name="right" unicode="&#58906;" d="M251.04491307 853.32697173c-14.4168832-13.6670048-14.4168832-35.84355093 0-49.51164693l442.54854933-419.81859947-442.54854933-419.8033184c-14.4168832-13.67573653-14.41688319-35.84464213 0-49.52037973 14.40924267-13.67464533 37.77991893-13.67464533 52.1891616 0l460.97024426 437.34305919c0 0 19.561248 18.12479893 19.561248 31.98063788 0 12.7697696-19.56124799 31.9882784-19.561248 31.98827839L303.23516587 853.32697173C288.824832 867.00270826 265.45415573 867.00270827 251.04491307 853.32697173z"  horiz-adv-x="1024" />
      
      <glyph glyph-name="webpack" unicode="&#58893;" d="M768 211.2L512 64v115.2l160 89.6 96-57.6z m19.2 16v307.2l-96-54.4v-198.4l96-54.4z m-556.8-16l259.2-147.2v115.2l-160 89.6-99.2-57.6z m-19.2 16v307.2l96-54.4v-198.4l-96-54.4z m9.6 326.4L486.4 704v-108.8l-169.6-92.8-96 51.2z m556.8 0L512 704v-108.8l169.6-92.8 96 51.2z m-291.2-348.8l-160 86.4v172.8l160-92.8v-166.4z m25.6 0l160 86.4v172.8l-160-92.8v-166.4z m-172.8 281.6l160 86.4 160-86.4-160-92.8-160 92.8z"  horiz-adv-x="1024" />
      
      <glyph glyph-name="react" unicode="&#61265;" d="M836.4 541.6c-10.8 3.6-21.6 7-32.4 10.2 1.8 7.4 3.4 14.8 5 22.2 24.6 119.2 8.4 215-46.2 246.6-52.6 30.2-138.4-1.2-225.2-76.8-8.6-7.4-17-15.2-25-23-5.4 5.2-11 10.4-16.6 15.4-91 80.8-182.2 114.8-236.8 83-52.4-30.4-68-120.6-46-233.4 2.2-11.2 4.6-22.2 7.4-33.4-12.8-3.6-25.4-7.6-37.2-11.8C76.6 503.6 0 445.2 0 384.8c0-62.4 81.6-125 192.6-163 9-3 18-6 27.2-8.6-3-12-5.6-23.8-8-36-21-111-4.6-199 47.8-229.2 54-31.2 144.8 0.8 233.2 78.2 7 6.2 14 12.6 21 19.4 8.8-8.6 18-16.8 27.2-24.8 85.6-73.6 170.2-103.4 222.4-73.2 54 31.2 71.6 125.8 48.8 241-1.8 8.8-3.8 17.8-6 27 6.4 1.8 12.6 3.8 18.8 5.8 115.4 38.2 199 100 199 163.4 0 60.6-78.8 119.4-187.6 156.8zM565.8 711.4c74.4 64.8 143.8 90.2 175.4 72 33.8-19.4 46.8-97.8 25.6-200.8-1.4-6.8-2.8-13.4-4.6-20-44.4 10-89.4 17.2-134.6 21.2-26 37.2-54.4 72.8-85.2 106.2 7.8 7.4 15.4 14.4 23.4 21.4zM334.4 281c10.2-17.4 20.6-34.8 31.6-51.8-31.2 3.4-62.2 8.4-92.8 15 8.8 28.8 19.8 58.6 32.6 89 9.2-17.6 18.6-35 28.6-52.2z m-60.6 240.6c28.8 6.4 59.4 11.6 91.2 15.6-10.6-16.6-21-33.6-30.8-50.8-9.8-17-19.4-34.4-28.4-52-12.6 29.8-23.2 59-32 87.2z m54.8-137.8c13.2 27.6 27.6 54.6 42.8 81.2s31.6 52.4 48.8 77.8c30 2.2 60.6 3.4 91.8 3.4s62-1.2 91.8-3.4c17-25.2 33.2-51 48.6-77.4s29.8-53.4 43.4-80.8c-13.4-27.6-27.8-54.8-43.2-81.6-15.2-26.6-31.4-52.4-48.4-78-29.8-2.2-60.8-3.2-92.2-3.2s-61.8 1-91.2 2.8c-17.4 25.4-33.8 51.4-49.2 78s-29.6 53.6-43 81.2z m361.2-102.4c10.2 17.6 19.8 35.4 29.2 53.4 12.8-29 24-58.4 33.8-88.6-31-7-62.4-12.4-94-16 10.8 16.8 21 34 31 51.2z m28.8 153c-9.4 17.6-19 35.2-29 52.4-9.8 17-20 33.8-30.6 50.4 32.2-4 63-9.4 91.8-16-9.2-29.6-20-58.4-32.2-86.8zM512.4 659.4c21-22.8 40.8-46.8 59.2-71.6-39.6 1.8-79.4 1.8-119 0 19.6 25.8 39.8 49.8 59.8 71.6zM280.4 782c33.6 19.6 108.2-8.4 186.8-78 5-4.4 10-9.2 15.2-14-31-33.4-59.6-69-85.8-106.2-45.2-4-90-11-134.4-20.8-2.6 10.2-4.8 20.6-7 31-18.8 96.8-6.4 169.8 25.2 188z m-49-527.2c-8.4 2.4-16.6 5-24.8 7.8-42.6 13.4-91 34.6-126 62.4-20.2 14-33.8 35.6-37.6 59.8 0 36.6 63.2 83.4 154.4 115.2 11.4 4 23 7.6 34.6 11 13.6-43.4 30-86 49-127.2-19.2-41.8-35.8-85-49.6-129z m233.2-196c-33-30.2-71.2-54.2-112.8-70.6-22.2-10.6-47.8-11.6-70.6-2.6-31.8 18.4-45 89-27 184 2.2 11.2 4.6 22.4 7.4 33.4 44.8-9.6 90-16.2 135.8-19.6 26.4-37.4 55.4-73.2 86.4-106.8-6.4-6.2-12.8-12.2-19.2-17.8z m49 48.6c-20.4 22-40.8 46.4-60.6 72.6 19.2-0.8 39-1.2 59-1.2 20.6 0 40.8 0.4 60.8 1.4-18.4-25.4-38.2-49.6-59.2-72.8z m261.4-60c-1.8-24.4-13.8-47.2-33-62.6-31.8-18.4-99.6 5.6-172.8 68.4-8.4 7.2-16.8 15-25.4 23 30.6 33.8 58.8 69.6 84.4 107.2 45.8 3.8 91.4 10.8 136.4 21 2-8.2 3.8-16.4 5.4-24.4 9.8-43.2 11.4-88.2 5-132.6z m36.4 215c-5.6-1.8-11.2-3.6-17-5.2-14 43.6-31.2 86.2-51 127.6 19.2 40.8 35.4 82.8 49 125.8 10.4-3 20.4-6.2 30-9.4 93.2-32 158.6-79.6 158.6-116 0-39.2-69.8-89.8-169.6-122.8z m-299.4 30c50.6 0 91.6 41 91.6 91.6s-41 91.6-91.6 91.6c-50.6 0-91.6-41-91.6-91.6s41-91.6 91.6-91.6z"  horiz-adv-x="1024" />
      
      <glyph glyph-name="vue" unicode="&#58895;" d="M131.1 619.6h138.2l241.9-414.8 242 414.8h138.2L511.2-37.1zM430.6 619.6l80.6-138.3 80.7 138.3h139.4L511.2 239.4 291.1 619.6z"  horiz-adv-x="1024" />
      
      <glyph glyph-name="miyueshouquan" unicode="&#58967;" d="M965.26336 515.03104l-2.90816-2.4576s-28.2624 36.12672-27.32032 36.98688a169.5744 169.5744 0 0 1 18.0224 241.33632C890.59328 862.4128 781.1072 870.35904 708.608 808.63232a169.5744 169.5744 0 0 1-18.0224-241.33632 174.20288 174.20288 0 0 1 146.18624-58.69568c1.76128 0.16384 16.05632-44.11392 14.7456-44.27776a220.85632 220.85632 0 0 0-195.91168 73.15456 214.79424 214.79424 0 0 0 22.81472 305.68448c91.83232 78.2336 230.48192 68.15744 309.69856-22.48704a214.75328 214.75328 0 0 0-22.81472-305.64352z m-251.82208-43.78624c-8.47872-22.28224 17.69472-55.17312 17.69472-55.17312 58.69568-55.5008 114.97472-15.07328 113.70496-13.63968 55.82848 52.55168 16.1792 106.65984 13.84448 112.2304-39.03488 62.13632-125.46048 38.74816-122.96192 35.88096-40.42752 43.37664-51.03616 84.5824-53.73952 84.7872 135.04512 34.65216 218.56256-72.4992 218.35776-75.1616 141.76256-168.01792-25.92768-310.8864-23.22432-311.05024-139.63264-113.90976-274.06336-12.4928-274.06336-12.4928l-11.6736-9.91232-9.8304-58.61376-66.02752-6.02112-4.79232-64.3072-70.2464 10.4448-10.6496-69.30432-70.98368-0.24576-4.83328-64.34816-71.02464-0.24576-4.83328-64.34816-111.28832 45.79328-19.53792 103.87456 361.6768 308.06016c-21.62688 167.40352 88.4736 233.55392 93.71648 230.44096 36.2496-99.65568 114.4832-130.94912 110.71488-126.64832z m-247.07072-89.9072l-122.51136-104.36608-30.18752 34.57024-43.25376-66.9696-62.79168 36.90496-37.43744-61.97248-56.9344 41.86112-43.25376-66.9696-69.632 91.3408 18.8416 106.45504s457.03168 103.0144 461.0048 101.376c-26.86976-30.39232-13.84448-112.2304-13.84448-112.2304z"  horiz-adv-x="1064" />
      
      <glyph glyph-name="miyue" unicode="&#58926;" d="M419.2 140.16c-0.64 0.64-75.52 75.52-50.56 100.48 24.96 24.96 100.48-50.56 100.48-50.56m88.32 88.32c119.04-56.96 265.6-35.84 364.16 62.72a320.192 320.192 0 0 1 0 452.48c-124.8 124.8-327.68 124.8-453.12 0-97.92-97.92-118.4-245.12-62.08-364.16L8.96 32l7.68-143.36 143.36-7.68 57.6 57.6s-75.52 75.52-50.56 100.48c24.96 24.96 100.48-49.92 100.48-50.56l50.56 50.56s-75.52 75.52-50.56 100.48c24.96 24.96 100.48-50.56 100.48-50.56m403.2 403.2c-41.6-41.6-109.44-41.6-151.04 0-41.6 41.6-41.6 109.44 0 151.04 41.6 41.6 109.44 41.6 151.04 0 41.6-41.6 41.6-109.44 0-151.04z m0 0"  horiz-adv-x="1024" />
      
      <glyph glyph-name="miyue1" unicode="&#59023;" d="M512 384m-509.72444445 0a509.72444445 509.72444445 0 1 1 1019.4488889 0 509.72444445 509.72444445 0 1 1-1019.4488889 0ZM477.24088889 433.01205333c-61.08956445 23.69649778-133.66385778 11.83175111-182.68615111-36.62620444-66.17770667-64.59847111-66.17770667-169.37870222 0-234.57223111 66.1504-65.19466667 173.52135111-64.59847111 240.31914667 0 46.35648 44.72149333 61.50712889 112.10979555 40.09528888 171.69408-0.68039111 1.8944-1.61792 4.24846222-2.81031111 7.0656a15.29173333 15.29173333 0 0 0 3.39626667 16.90737777l4.57159111 4.46236445 63.89191111 62.38549333c5.9392 5.79925333 15.42030222 5.80152889 21.36177778 0.00455112l58.56142222-57.1392c5.94147555-5.79584 15.42144-5.79470222 21.36064 0.00227555l58.01073778 56.61809778c6.04387555 5.89937778 6.16106667 15.58072889 0.26168889 21.62460444a15.28832 15.28832 0 0 1-0.26055111 0.26168889l-57.48280889 56.12202667c-6.0416 5.89937778-6.15765333 15.58072889-0.25827556 21.62460444 0.08533333 0.08760889 0.17294222 0.17408 0.26055111 0.26055111l17.57070222 17.14858667c6.04387555 5.89937778 6.16106667 15.58072889 0.2616889 21.62460445-0.07168 0.07395555-0.14563555 0.14791111-0.21959112 0.22072888l-58.69568 57.73312c-5.94147555 5.84362667-15.46695111 5.85500445-21.42094222 0.02503112l-186.81969778-182.90915556-1.75445333-1.71804444a15.29173333 15.29173333 0 0 0-16.40675555-3.25973334c-0.39480889 0.15928889-0.76458667 0.30492445-1.10933334 0.43918222zM447.57902222 242.36942222000005c-20.36053333-20.06926222-53.06481778-20.06926222-73.42648889 0-20.06926222 20.36167111-20.06926222 53.06595555 0 73.42762667 20.36167111 20.06926222 53.06595555 20.06926222 73.42762667 0 20.06926222-20.36167111 20.06926222-53.06595555 0-73.42762667zM446.65742222 463.59552c-61.08956445 23.69649778-133.66385778 11.83175111-182.68615111-36.62620445-66.17770667-64.59847111-66.17770667-169.37870222 0-234.5722311 66.1504-65.19466667 173.52135111-64.59847111 240.31914667 0 46.35648 44.72149333 61.50712889 112.10979555 40.09528889 171.69408-0.68039111 1.8944-1.61792 4.24846222-2.81031112 7.0656a15.29173333 15.29173333 0 0 0 3.39626667 16.90737777l4.57159111 4.46236445 63.89191112 62.38549333c5.9392 5.79925333 15.42030222 5.80152889 21.36177777 0.00455111l58.56142223-57.1392c5.94147555-5.79584 15.42144-5.79470222 21.36064 0.00227556l58.01073777 56.61809778c6.04387555 5.89937778 6.16106667 15.58072889 0.26168889 21.62460444a15.28832 15.28832 0 0 1-0.26055111 0.26168889l-57.48280889 56.12202667c-6.0416 5.89937778-6.15765333 15.58072889-0.25827556 21.62460444 0.08533333 0.08760889 0.17294222 0.17408 0.26055112 0.26055111l17.57070222 17.14858667c6.04387555 5.89937778 6.16106667 15.58072889 0.26168889 21.62460444-0.07168 0.07395555-0.14563555 0.14791111-0.21959111 0.22072889l-58.69568 57.73312c-5.94147555 5.84362667-15.46695111 5.85500445-21.42094222 0.02503111l-186.81969778-182.90915556-1.75445334-1.71804444a15.29173333 15.29173333 0 0 0-16.40675555-3.25973333c-0.39480889 0.15928889-0.76458667 0.30492445-1.10933333 0.43918222zM416.99555555 272.95288889000005c-20.36053333-20.06926222-53.06481778-20.06926222-73.42648888 0-20.06926222 20.36167111-20.06926222 53.06595555 0 73.42762666 20.36167111 20.06926222 53.06595555 20.06926222 73.42762666 0 20.06926222-20.36167111 20.06926222-53.06595555 0-73.42762666z"  horiz-adv-x="1024" />
      
      <glyph glyph-name="QRcode" unicode="&#58934;" d="M298.666667 597.333333h157.866666v-157.866666H298.666667zM298.666667 328.533333h157.866666V170.666667H298.666667zM567.466667 597.333333H725.333333v-157.866666h-157.866666zM512 896C228.266667 896 0 667.733333 0 384s228.266667-512 512-512 512 228.266667 512 512S795.733333 896 512 896z m-12.8-725.333333c0-23.466667-19.2-42.666667-42.666667-42.666667H298.666667c-23.466667 0-42.666667 19.2-42.666667 42.666667v157.866666c0 23.466667 19.2 42.666667 42.666667 42.666667h157.866666c23.466667 0 42.666667-19.2 42.666667-42.666667V170.666667z m0 268.8c0-23.466667-19.2-42.666667-42.666667-42.666667H298.666667c-23.466667 0-42.666667 19.2-42.666667 42.666667V597.333333c0 23.466667 19.2 42.666667 42.666667 42.666667h157.866666c23.466667 0 42.666667-19.2 42.666667-42.666667v-157.866666z m85.333333-283.733334c0-12.8-8.533333-21.333333-21.333333-21.333333s-21.333333 8.533333-21.333333 21.333333v132.266667c0 12.8 8.533333 21.333333 21.333333 21.333333s21.333333-8.533333 21.333333-21.333333v-132.266667z m83.2 0c0-12.8-8.533333-21.333333-21.333333-21.333333s-21.333333 8.533333-21.333333 21.333333v132.266667c0 12.8 8.533333 21.333333 21.333333 21.333333s21.333333-8.533333 21.333333-21.333333v-132.266667z m83.2 0c0-12.8-8.533333-21.333333-21.333333-21.333333s-21.333333 8.533333-21.333333 21.333333v132.266667c0 12.8 8.533333 21.333333 21.333333 21.333333s21.333333-8.533333 21.333333-21.333333v-132.266667z m-10.666666 166.4H554.666667c-12.8 0-21.333333 8.533333-21.333334 21.333334s8.533333 21.333333 21.333334 21.333333h185.6c12.8 0 21.333333-8.533333 21.333333-21.333333 0-10.666667-10.666667-21.333333-21.333333-21.333334z m27.733333 117.333334c0-23.466667-19.2-42.666667-42.666667-42.666667h-157.866666c-23.466667 0-42.666667 19.2-42.666667 42.666667V597.333333c0 23.466667 19.2 42.666667 42.666667 42.666667H725.333333c23.466667 0 42.666667-19.2 42.666667-42.666667v-157.866666z"  horiz-adv-x="1024" />
      
      <glyph glyph-name="Dm-01-01" unicode="&#58899;" d="M98 798h829.99v-829.99H98zM141.34 754.96h741.52v-741.52H141.34zM256.05 640.05h64.01V128.2h-64.01zM312.48 576h71.6v-447.68h-71.6zM374.57 512.21h73.52V128.2h-73.52zM442.52 448.04h69.58v-319.57h-69.58zM503.96 383.82h72.16V128.2h-72.16zM570.09 319.93h70.04V128.2h-70.04zM384.07 640.05h64.01v-64.01h-64.01zM448.29 576.05h64.01v-64.01h-64.01zM512.1 511.92h64.01v-64.01H512.1zM576.11 447.89h64.01v-64.01h-64.01zM640.12 383.97h64.01v-64.01h-64.01zM704.14 319.93h64.01v-64.01h-64.01zM704.14 447.79h64.01v-64.01h-64.01zM640.12 512.21h64.01v-64.01h-64.01zM512.1 640.05h64.01v-64.01H512.1zM640.12 640.05h64.01v-64.01h-64.01zM704.141 256.031v-70.6h-447.68v70.6zM768.148 192.121v-63.65h-512.1v63.65z"  horiz-adv-x="1024" />
      
      <glyph glyph-name="download1" unicode="&#58916;" d="M934.912 307.2c37.888-36.864 61.44-88.064 61.44-145.408 0-110.592-90.112-200.704-200.704-200.704-111.616 0-201.728 90.112-201.728 201.728 0 8.192 0 15.36 1.024 23.552C607.232 285.696 692.224 363.52 795.648 363.52c53.248 0 102.4-21.504 139.264-56.32zM950.272 384c0-16.384-2.048-31.744-5.12-46.08-41.984 35.84-94.208 55.296-149.504 55.296-116.736 0-215.04-87.04-228.352-203.776v-3.072H186.368c-88.064 0-158.72 70.656-158.72 158.72 0 68.608 43.008 125.952 103.424 148.48v10.24c0 80.896 65.536 147.456 147.456 147.456 25.6 0 50.176-7.168 71.68-18.432 22.528 100.352 112.64 175.104 220.16 175.104 124.928 0 225.28-101.376 225.28-225.28v-4.096c88.064-20.48 154.624-100.352 154.624-194.56zM900.096 159.744l-102.4-102.4-101.376 102.4h60.416v143.36H839.68v-143.36z"  horiz-adv-x="1024" />
      
      <glyph glyph-name="Cursor" unicode="&#59002;" d="M336.418443 895.676671A266.198739 266.198739 0 0 1 165.436945 437.814839a51.396833 51.396833 0 0 1 84.569291 24.572192 50.168224 50.168224 0 0 1-12.9004 48.939614A163.814609 163.814609 0 0 0 185.913771 631.730383 165.657523 165.657523 0 0 0 339.489966 793.29254a163.814609 163.814609 0 0 0 163.814609-108.32241 48.120541 48.120541 0 0 1 37.063055-32.353385h4.504902a50.372992 50.372992 0 0 1 55.287431 66.754453A266.198739 266.198739 0 0 1 336.418443 895.676671zM913.250634 363.279193L376.553022 675.960327a53.444516 53.444516 0 0 1-80.06439-53.444516l84.77406-615.533392a53.649284 53.649284 0 0 1 81.907304-37.472592 46.482395 46.482395 0 0 1 9.214572 7.781194l148.047452 154.804805L779.741727-105.230588a51.192065 51.192065 0 0 1 85.183597 56.925576L706.025154 189.021402l199.649054 77.607171a47.711005 47.711005 0 0 1 10.647949 5.528743 53.649284 53.649284 0 0 1-3.071523 91.121877z m-158.900171-45.253786l-122.860956-47.915773A156.442951 156.442951 0 0 1 574.973467 232.022737l-91.326645-95.626778a10.238413 10.238413 0 0 0-17.61007 5.733512l-51.601602 373.906844a10.238413 10.238413 0 0 0 15.35762 10.443181l325.991071-190.434482a10.238413 10.238413 0 0 0-1.433378-18.429144z"  horiz-adv-x="1024" />
      
      <glyph glyph-name="Mouse_cursor" unicode="&#60285;" d="M971.064407 416.976271c-5.20678-13.016949-16.488136-24.298305-32.976271-28.637288l-212.61017-85.044068c-32.976271-13.016949-61.613559-32.976271-85.044068-58.142373-20.827119-21.694915-37.315254-47.728814-48.59661-76.366101l-85.044068-212.61017c-8.677966-32.976271-43.389831-44.257627-69.423728-32.976271-10.413559 4.338983-19.959322 13.016949-25.166102 25.166102L7.810169 831.783051c-6.942373 13.884746-4.338983 28.637288 2.60339 39.918644C20.827119 889.057627 43.389831 898.60339 65.084746 888.189831l883.416949-404.393221c25.166102-12.149153 32.976271-42.522034 22.562712-66.820339zM1131.60678-124.52881400000001c-8.677966 0-17.355932 3.471186-24.298305 10.41356L816.59661 176.59661000000006c-13.884746 13.884746-13.884746 35.579661 0 49.464407 13.884746 13.884746 35.579661 13.884746 49.464407 0l290.711864-290.711864c13.884746-13.884746 13.884746-35.579661 0-49.464407-7.810169-6.942373-16.488136-10.413559-25.166101-10.41356zM837.423729-126.264407c-8.677966 0-17.355932 3.471186-24.298305 10.41356l-130.169492 130.169491c-13.884746 13.884746-13.884746 35.579661 0 49.464407 13.884746 13.884746 35.579661 13.884746 49.464407 0l130.169492-130.169492c13.884746-13.884746 13.884746-35.579661 0-49.464406-7.810169-6.942373-16.488136-10.413559-25.166102-10.41356zM639.566102 246.02033900000004c-20.827119-21.694915-37.315254-47.728814-48.59661-76.366102l-85.044068-212.610169c-8.677966-32.976271-43.389831-44.257627-69.423729-32.976271-10.413559 4.338983-19.959322 13.016949-25.166102 25.166101L6.942373 832.650847C0 846.535593 2.60339 861.288136 9.545763 872.569492l630.020339-626.549153z"  horiz-adv-x="1171" />
      
      <glyph glyph-name="cursor" unicode="&#59083;" d="M873.115826 365.033739L265.48313 592.005565l227.238957-607.009391 134.633739 134.455652 195.450435-195.227826 111.215304 111.126261-195.450435 195.227826zM796.048696 228.708174l105.783652 105.73913a40.648348 40.648348 0 0 1-14.514087 66.782609L279.685565 628.112696A40.603826 40.603826 0 0 1 227.506087 575.888696l227.238956-607.009392a40.559304 40.559304 0 0 1 66.693566-14.469565l105.961739 105.783652 166.733913-166.555826a40.381217 40.381217 0 0 1 57.344 0l111.259826 111.081739a40.514783 40.514783 0 0 1 0 57.433044l-166.689391 166.555826z m26.713043-248.965565l-166.733913 166.600348a40.425739 40.425739 0 0 1-57.433043 0l-89.978435-89.933914L334.714435 520.94887l464.985043-173.634783-89.933913-89.84487a40.648348 40.648348 0 0 1 0.044522-57.433043l166.733913-166.511304-53.782261-53.73774zM138.017391 774.90087a40.603826 40.603826 0 1 1-57.388521-57.433044l37.620869-37.620869 19.277913-19.233392a40.470261 40.470261 0 0 1 57.433044 0.044522 40.559304 40.559304 0 0 1-0.044522 57.433043L138.017391 774.90087zM409.956174 735.365565V815.638261a40.603826 40.603826 0 0 1-81.207652 0v-80.272696a40.603826 40.603826 0 0 1 81.207652 0zM161.747478 487.334957a40.603826 40.603826 0 0 1-40.603826 40.603826H40.737391a40.603826 40.603826 0 0 1 0-81.207653h80.406261a40.603826 40.603826 0 0 1 40.603826 40.603827z"  horiz-adv-x="1024" />
      
      <glyph glyph-name="quxiao2" unicode="&#58919;" d="M512 824c59.4 0 117-11.6 171.2-34.5 52.4-22.2 99.4-53.9 139.9-94.3 40.4-40.4 72.2-87.5 94.3-139.9C940.4 501 952 443.4 952 384s-11.6-117-34.5-171.2c-22.2-52.4-53.9-99.4-94.3-139.9-40.4-40.4-87.5-72.2-139.9-94.3C629-44.4 571.4-56 512-56s-117 11.6-171.2 34.5c-52.4 22.2-99.4 53.9-139.9 94.3-40.4 40.4-72.2 87.5-94.3 139.9C83.6 267 72 324.6 72 384s11.6 117 34.5 171.2c22.2 52.4 53.9 99.4 94.3 139.9 40.4 40.4 87.5 72.2 139.9 94.3C395 812.4 452.6 824 512 824m0 72C229.2 896 0 666.8 0 384s229.2-512 512-512 512 229.2 512 512S794.8 896 512 896zM350.8 186.8c-9.2 0-18.4 3.5-25.5 10.5-14.1 14.1-14.1 36.9 0 50.9l322.4 322.4c14.1 14.1 36.9 14.1 50.9 0 14.1-14.1 14.1-36.9 0-50.9L376.3 197.3c-7.1-7-16.3-10.5-25.5-10.5zM673.2 186.8c-9.2 0-18.4 3.5-25.5 10.5L325.3 519.7c-14.1 14.1-14.1 36.9 0 50.9 14.1 14.1 36.9 14.1 50.9 0l322.4-322.4c14.1-14.1 14.1-36.9 0-50.9-7-7-16.2-10.5-25.4-10.5z"  horiz-adv-x="1024" />
      
      <glyph glyph-name="jiantou-zuo1" unicode="&#59163;" d="M316.28 381.289L699.53 764.54c17.574 17.573 17.574 46.066 0 63.64-17.573 17.573-46.066 17.573-63.64 0L189 381.288l446.891-446.892c17.574-17.573 46.067-17.573 63.64 0 17.574 17.574 17.574 46.066 0 63.64L316.28 381.289z"  horiz-adv-x="1024" />
      
      <glyph glyph-name="jiantou-you1" unicode="&#58891;" d="M269.248-50.624l408.32 408.192a38.4 38.4 0 0 1 2.432 50.176 34.048 34.048 0 0 1-2.368 2.688L269.248 818.624a47.936 47.936 0 0 0-3.008 62.72 37.12 37.12 0 0 0 56.32 3.264l408.384-408.128c2.944-3.008 5.76-6.144 8.448-9.408 41.216-51.072 37.44-129.664-8.448-175.552L322.56-116.608a37.12 37.12 0 0 0-56.32 3.328 47.936 47.936 0 0 0 3.008 62.656z"  horiz-adv-x="1024" />
      
      <glyph glyph-name="quxiao" unicode="&#58924;" d="M561.29 384l199.35 199.35c13.61 13.61 13.61 35.68 0 49.29s-35.68 13.61-49.29 0L512 433.29 312.65 632.65c-13.61 13.61-35.68 13.61-49.29 0s-13.61-35.68 0-49.29L462.71 384 263.35 184.65c-13.61-13.61-13.61-35.68 0-49.29 6.81-6.81 15.73-10.21 24.65-10.21s17.84 3.4 24.65 10.21L512 334.71l199.35-199.35c6.81-6.81 15.73-10.21 24.65-10.21s17.84 3.4 24.65 10.21c13.61 13.61 13.61 35.68 0 49.29L561.29 384z"  horiz-adv-x="1024" />
      
      <glyph glyph-name="quxiao1" unicode="&#58892;" d="M571 383.1L916.9 729c15.9 15.9 15.9 41.7 0 57.6-15.9 15.9-41.7 15.9-57.6 0L513.4 440.7 167.5 786.6c-15.9 15.9-41.7 15.9-57.6 0-15.9-15.9-15.9-41.7 0-57.6l345.9-345.8L110 37.3c-15.9-15.9-15.9-41.7 0-57.6 8-8 18.4-11.9 28.8-11.9 10.4 0 20.8 4 28.8 11.9l345.9 345.8 345.9-345.8c8-8 18.4-11.9 28.8-11.9 10.4 0 20.8 4 28.8 11.9 15.9 15.9 15.9 41.7 0 57.6L571 383.1z"  horiz-adv-x="1024" />
      
      <glyph glyph-name="icon02" unicode="&#58888;" d="M510.12507762-71.58469632000003c-250.93545643 0-454.35920043 203.46473813-454.35920043 454.43255751S259.18962119 837.26531584 510.12507762 837.26531584c250.93761365 0 454.36135765-203.44963527 454.36135765-454.41745465S761.06269127-71.58469632000003 510.12507762-71.58469632000003zM510.12507762 780.4652908099999c-219.57095083 0-397.56349099-178.01843029-397.56349099-397.61742962S290.55412565-14.771726790000002 510.12507762-14.771726790000002s397.56349099 178.02058752 397.56349099 397.61958798S729.69602845 780.4652908099999 510.12507762 780.4652908099999zM680.51004643 354.44137643L538.52508957 354.44137643l0-142.00653369c0-15.67685859-12.71452331-28.39569749-28.39785472-28.39569749-15.68333141 0-28.39569749 12.7188389-28.3956975 28.39569749l0 142.00653369-141.98927246 0c-15.68333141 0-28.39785472 12.71668053-28.39785472 28.40648476 0 15.67901582 12.71668053 28.39569749 28.39785472 28.3956975l141.98927246 0 0 142.0130065c0 15.67685859 12.71452331 28.38922467 28.3956975 28.38922468 15.68548864 0 28.39785472-12.71020771 28.39785472-28.38922468l0-142.0130065 141.984958 0c15.68548864 0 28.39785472-12.71668053 28.39785472-28.3956975C708.90790115 367.15805695999995 696.19553507 354.44137643 680.51004643 354.44137643z"  horiz-adv-x="1024" />
      
      <glyph glyph-name="gototrade" unicode="&#58961;" d="M476 896l512-512-512-512-220.64 220.64 72.8 72.8 147.84-145.6L840.16 384 476 750.4l-147.84-145.76-72.8 72.8zM328.16 567.2L548.8 384 328.16 200.8v110.4H36.8v145.6h291.36z"  horiz-adv-x="1024" />
      
      <glyph glyph-name="jiantou" unicode="&#58902;" d="M671.589 384.289l-270.231 270.189c-2.575 2.818-5.689 5.096-9.184 6.68-2.56 5.106-20.288 5.106-31.223-5.829-10.935-10.935-10.935-28.663 0-39.598 0.278-0.278 0.564-0.545 0.851-0.809l-0.021-0.021 230.691-230.691-231.94-231.94c-10.935-10.935-10.935-28.663 0-39.598s28.663-10.935 39.598 0l271.459 271.617z"  horiz-adv-x="1024" />
      
      <glyph glyph-name="jiantou_zuo" unicode="&#58904;" d="M352.411 384.289l39.518 39.518L622.62 654.498l0.021-0.021c0.264 0.287 0.531 0.573 0.809 0.851 10.935 10.935 28.663 10.935 39.598 0 10.935-10.935 10.935-28.663 0-39.598-0.278-0.278-0.564-0.545-0.851-0.809l0.021-0.021-230.69-230.691 231.94-231.94c10.935-10.935 10.935-28.663 0-39.598-10.935-10.935-28.663-10.935-39.598 0L352.332 384.209l0.079 0.08z"  horiz-adv-x="1024" />
      
      <glyph glyph-name="jiantou-zuo" unicode="&#59192;" d="M181.772405 416.325457L458.222165 692.775217c12.496698 12.496698 12.496698 32.758136 0 45.254834-12.496698 12.496698-32.758136 12.496698-45.254834 0l-331.014362-331.014362c-12.496698-12.496698-12.496698-32.758136 0-45.254834l339.144676-341.796326c12.496698-12.496698 32.758136-12.496698 45.254834 0 12.496698 12.496698 12.496698 32.758136 0 45.254834l-284.454209 287.105859 739.427925 0.03182c17.673427 0 32.000117 14.32669 32.000117 32.000117-0.000707 17.67272-14.327398 31.99941-32.000117 32.000118l-739.553083-0.032527z"  horiz-adv-x="1024" />
      
      <glyph glyph-name="jiantou-you" unicode="&#59193;" d="M842.808715 351.092908L566.358955 74.643148c-12.496698-12.496698-12.496698-32.758136 0-45.254834 12.496698-12.496698 32.758136-12.496698 45.254834 0l331.014362 331.014362c12.496698 12.496698 12.496698 32.758136 0 45.254834l-339.144676 341.796326c-12.496698 12.496698-32.758136 12.496698-45.254834 0-12.496698-12.496698-12.496698-32.758136 0-45.254834l284.454209-287.105859-739.427925-0.03182c-17.673427 0-32.000117-14.32669-32.000117-32.000118 0.000707-17.67272 14.327398-31.99941 32.000117-32.000117l739.553083 0.032527z"  horiz-adv-x="1024" />
      
      <glyph glyph-name="setting" unicode="&#58901;" d="M358.971-49.385c-2.081 0-4.252 0.271-6.333 0.905-62.331 17.279-119.868 50.39-166.458 95.894-4.885 4.795-7.418 11.489-7.056 18.274 0.362 6.785 3.709 13.208 9.137 17.37 29.763 23.159 37.996 65.045 19.179 97.523-18.907 32.568-59.256 46.319-94.085 32.387-6.333-2.624-13.57-2.352-19.631 0.814-6.061 3.076-10.585 8.685-12.213 15.289-7.961 31.392-11.942 63.598-11.942 95.804 0 32.116 3.981 64.322 11.942 95.804 1.719 6.604 6.152 12.213 12.213 15.379 6.061 3.166 13.208 3.438 19.631 0.814 34.739-14.113 75.087-0.271 93.995 32.297 18.817 32.387 10.585 74.363-19.179 97.523-5.428 4.252-8.685 10.585-9.137 17.37-0.362 6.785 2.171 13.48 7.056 18.274 46.59 45.505 104.217 78.706 166.458 95.894 6.695 1.719 13.66 0.633 19.36-3.076 5.699-3.8 9.499-9.77 10.404-16.555 5.066-37.182 37.272-65.226 74.816-65.226 26.869 0 65.136 39.986 75.087 57.537-0.724 3.619-0.543 7.509 0.543 11.308 3.8 12.484 17.008 19.45 29.402 15.922 0 0 0 0 0.090 0v0 0c64.955-19.36 120.773-51.656 165.915-95.714 4.885-4.795 7.509-11.489 7.147-18.274-0.362-6.785-3.709-13.118-9.137-17.37-29.673-23.159-37.996-65.045-19.179-97.523 18.907-32.568 59.346-46.5 94.085-32.297 6.333 2.624 13.48 2.352 19.631-0.814 6.152-3.076 10.585-8.685 12.213-15.379 7.961-31.482 11.942-63.688 11.942-95.714s-4.071-64.231-11.942-95.804c-1.719-6.604-6.152-12.213-12.213-15.289-6.152-3.166-13.208-3.438-19.631-0.814-34.739 14.022-75.178 0.181-94.085-32.387-18.817-32.387-10.585-74.363 19.179-97.523 5.428-4.161 8.685-10.494 9.137-17.37s-2.171-13.48-7.147-18.274c-46.5-45.414-104.036-78.615-166.458-95.894-6.604-1.809-13.66-0.724-19.269 3.076-5.699 3.8-9.499 9.861-10.494 16.555-5.066 37.182-37.182 65.226-74.816 65.226-37.544 0-69.75-28.045-74.816-65.226-0.905-6.785-4.704-12.756-10.404-16.555-3.8-2.895-8.323-4.161-12.937-4.161zM237.203 64.965c31.211-26.326 66.945-46.952 105.212-60.613 17.731 46.681 63.146 79.339 114.892 79.339 51.747 0 97.161-32.658 114.892-79.339 38.358 13.66 74.002 34.287 105.212 60.613-31.573 38.901-37.182 94.537-11.218 139.318 25.873 44.69 76.896 67.398 126.11 59.889 3.619 20.084 5.338 40.439 5.338 60.613 0 20.174-1.809 40.439-5.338 60.613-49.033-7.961-100.146 15.198-126.11 59.889-25.964 44.69-20.355 100.327 11.218 139.228-30.487 25.692-65.95 45.957-105.755 60.522-20.174-33.111-68.935-79.158-114.35-79.158-51.656 0-97.071 32.658-114.892 79.339-38.267-13.57-74.002-34.196-105.212-60.703 31.573-38.901 37.182-94.537 11.218-139.228-25.964-44.69-76.625-67.669-126.020-59.889-3.619-20.084-5.428-40.348-5.428-60.613 0-20.264 1.809-40.529 5.428-60.613 49.123 7.78 100.146-15.198 126.11-59.979 25.783-44.6 20.264-100.327-11.308-139.228zM457.217 201.75c-67.759 0-122.944 55.185-122.944 123.034s55.185 122.944 122.944 122.944c67.759 0 122.944-55.185 122.944-122.944s-55.185-123.034-122.944-123.034zM457.217 400.324c-41.705 0-75.63-33.925-75.63-75.63s33.925-75.63 75.63-75.63c41.705 0 75.539 33.925 75.539 75.63s-33.834 75.63-75.539 75.63z"  horiz-adv-x="1105" />
      
      <glyph glyph-name="download" unicode="&#59000;" d="M477.866667 787.626667h68.266666v-590.506667h-68.266666zM512 116.906667L153.6 427.52l45.226667 51.2L512 207.36l313.173333 268.8 44.373334-52.053333zM162.133333 51.2h699.733334v-68.266667H162.133333z"  horiz-adv-x="1024" />
      
      <glyph glyph-name="arrow-up" unicode="&#58885;" d="M511.872 219.20000000000005a32 32 0 0 0-23.232 9.984l-251.264 265.6a32 32 0 0 0 46.528 43.968l228.03200001-241.088 228.22399999 241.088a32.064 32.064 0 0 0 45.248 1.28c12.8-12.16 13.376-32.448 1.28-45.248l-251.52-265.6a32 32 0 0 0-23.296-9.984z"  horiz-adv-x="1024" />
      
      <glyph glyph-name="-search1" unicode="&#58886;" d="M400.696889 94.606222A400.668444 400.668444 0 1 0 400.696889 896a400.668444 400.668444 0 0 0 0-801.393778z m0 89.031111a311.637333 311.637333 0 1 1 0 623.331556 311.637333 311.637333 0 0 1 0-623.331556zM667.904 294.00177799999994l314.766222-314.823111-62.919111-62.976-314.823111 314.823111z"  horiz-adv-x="1024" />
      
      <glyph glyph-name="view" unicode="&#59073;" d="M512 288a96 96 0 1 0 0 192 96 96 0 0 0 0-192m0 256c-88.224 0-160-71.776-160-160s71.776-160 160-160 160 71.776 160 160-71.776 160-160 160M512 96c-212.064 0-384 256-384 288s171.936 288 384 288 384-256 384-288-171.936-288-384-288m0 640C265.248 736 64 452.992 64 384c0-68.992 201.248-352 448-352s448 283.008 448 352c0 68.992-201.248 352-448 352"  horiz-adv-x="1024" />
      
      <glyph glyph-name="setting-copy" unicode="&#58887;" d="M424.36524698-97.03301318000001c-2.69358333 0-5.50427835 0.35133639-8.19786038 1.17112347-80.69036988 22.36844848-155.17378733 65.2315466-215.48661797 124.13903038-6.32406413 6.20695113-9.60320853 14.87326089-9.13475915 23.65668365 0.46844939 8.78342146 4.80160427 17.09839483 11.82834118 22.48556018 38.52994454 29.98074647 49.18716225 84.2037377 24.82780582 126.24705132-24.47646942 42.16042533-76.70855139 59.96149424-121.79678475 41.92620065-8.19786037-3.39625611-17.56684421-3.04491971-25.41336691 1.05401046-7.84652398 3.98181849-13.70213872 11.2427801-15.81015966 19.79197687-10.30588131 40.63796548-15.45882197 82.32994144-15.45882197 124.02191739 0 41.57486425 5.15294066 83.2668402 15.45882197 124.02191739 2.22513394 8.54919677 7.96363568 15.81015966 15.81015966 19.90908985 7.84652398 4.09893019 17.09839483 4.45026658 25.41336691 1.05401047 44.97112035-18.26951699 97.20320234-0.35133639 121.67967176 41.80908894 24.35935643 41.92620065 13.70213872 96.26630484-24.82780583 126.24705134-7.02673692 5.50427835-11.2427801 13.70213872-11.82834117 22.48556018-0.46844939 8.78342146 2.81069502 17.44973122 9.13475915 23.65668363 60.31283065 58.90748249 134.91336109 101.88769489 215.48661796 124.13903039 8.66630976 2.22513394 17.68395591 0.81978578 25.06203051-3.98181849 7.37807459-4.91871597 12.29679056-12.64812695 13.46791403-21.43154971 6.55828882-48.13315178 48.25026477-84.43796238 96.85186593-84.43796238 34.78235074 0 84.32085068 51.76363387 97.20320233 74.48341746-0.93689877 4.68449127-0.70267408 9.72032023 0.70267408 14.63903618 4.91871597 16.16149605 22.01711081 25.1791435 38.06149515 20.61176396 0 0 0 0 0.11711171 0l0 0 0 0c84.08662598-25.06203051 156.34491079-66.87111946 214.78394388-123.9048057 6.32406413-6.20695113 9.72032023-14.87326089 9.25187085-23.65668365-0.46844939-8.78342146-4.80160427-16.98128183-11.82834117-22.48556018-38.41283155-29.98074647-49.18716225-84.2037377-24.82780583-126.24705133 24.47646942-42.16042533 76.82566438-60.19571894 121.79678475-41.80908895 8.19786037 3.39625611 17.44973122 3.04491971 25.41336691-1.05401046 7.96363568-3.98181849 13.70213872-11.2427801 15.81015965-19.90908986 10.30588131-40.75507717 15.45882197-82.44705443 15.45882198-123.90480568s-5.27005365-83.14972721-15.45882198-124.02191739c-2.22513394-8.54919677-7.96363568-15.81015966-15.81015965-19.79197685-7.96363568-4.09893019-17.09839483-4.45026658-25.41336691-1.05401048-44.97112035 18.1524053-97.32031533 0.23422469-121.79678475-41.92620065-24.35935643-41.92620065-13.70213872-96.26630484 24.82780583-126.24705132 7.02673692-5.38716535 11.2427801-13.58502573 11.82834117-22.48556018s-2.81069502-17.44973122-9.25187085-23.65668364c-60.19571894-58.79037078-134.67913639-101.7705819-215.48661796-124.13903039-8.54919677-2.34224564-17.68395591-0.93689877-24.94491883 3.98181848-7.37807459 4.91871597-12.29679056 12.76523995-13.58502572 21.43154972-6.55828882 48.13315178-48.13315178 84.43796238-96.85186593 84.43796238-48.60160116 0-90.29357711-36.3048106-96.85186593-84.43796238-1.17112347-8.78342146-6.08983943-16.51283374-13.46791403-21.43154972C436.19358944-95.39344031999997 430.33797471-97.03301318000001 424.36524698-97.03301318000001zM266.73210101 50.996924260000014c40.40374079-34.07967666 86.66309631-60.78128003 136.20159625-78.46523595 22.95400957 60.42994234 81.74438035 102.70748068 148.73261151 102.70748067 66.98823116 0 125.77860194-42.27753705 148.7326115-102.70748067 49.65561163 17.68395591 95.79785546 44.38555927 136.20159626 78.46523595-40.87219017 50.35828571-48.13315178 122.38234583-14.52192451 180.35293082 33.49411557 57.85347201 99.54544796 87.2486574 163.254536 77.52833718 4.68449127 25.99892928 6.90962521 52.34919495 6.90962522 78.46523594 0 26.11604099-2.34224564 52.34919495-6.90962522 78.46523593-63.47486206-10.30588131-129.64330742 19.67486515-163.254536 77.52833717-33.61122857 57.85347201-26.35026567 129.87753213 14.52192451 180.23581785-39.46684201 33.25989088-85.37486115 59.49304486-136.90427033 78.34812422-26.11604099-42.86309941-89.23956665-102.47325598-148.02993743-102.47325598-66.87111946 0-125.66149023 42.27753705-148.73261151 102.70748068-49.53849994-17.56684421-95.79785546-44.26844627-136.20159625-78.58234763 40.87219017-50.35828571 48.13315178-122.38234583 14.5219245-180.23581784-33.61122857-57.85347201-99.19411156-87.59999508-163.137423-77.52833717-4.68449127-25.99892928-7.02673692-52.23208196-7.02673692-78.46523594 0-26.23315398 2.34224564-52.46630666 7.02673692-78.46523594 63.59197505 10.07165662 129.64330742-19.67486515 163.254536-77.64545017C314.74814109 173.49638308 307.60429119 101.35520995000002 266.73210101 50.996924260000014zM551.54919708 228.07071067000004c-87.71710679 0-159.15560581 71.43849903-159.15560583 159.27271753s71.43849903 159.15560581 159.15560583 159.15560581c87.71710679 0 159.15560581-71.43849903 159.1556058-159.15560581S639.26630386 228.07071067000004 551.54919708 228.07071067000004zM551.54919708 485.13219291c-53.98876652 0-97.90587642-43.9171099-97.90587642-97.90587643s43.9171099-97.90587642 97.90587642-97.90587638c53.98876652 0 97.7887647 43.9171099 97.7887647 97.90587638S605.53796358 485.13219291 551.54919708 485.13219291z"  horiz-adv-x="1105" />
      
      <glyph glyph-name="icon-start" unicode="&#58884;" d="M512 800c3.808 0 7.584-2.176 8.992-6.56l129.664-270.784 288.736-33.184c9.216 0 13.024-11.744 5.6-17.152L720 280l65.184-299.52a9.536 9.536 0 0 0-9.056-12.48 9.344 9.344 0 0 0-5.536 1.856L512 123.072l-258.592-153.216a9.344 9.344 0 0 0-5.536-1.856 9.536 9.536 0 0 0-9.056 12.48L304 280l-224.992 192.32a9.472 9.472 0 0 0 5.6 17.152l288.736 33.184 129.632 270.784A9.312 9.312 0 0 0 512 800"  horiz-adv-x="1024" />
      
      <glyph glyph-name="user" unicode="&#58972;" d="M513.457231 854.646154c-133.377969-2.837662-244.999877-49.189415-332.973292-137.160862C92.512492 629.511877 46.160738 517.889969 43.323077 384.512c2.837662-133.377969 49.189415-244.054646 137.160862-332.026092C268.457354-35.487508 380.079262-81.839262 513.457231-84.676923c133.377969 2.837662 244.054646 49.189415 332.026092 137.160862S979.808492 251.132062 982.646154 384.512c-2.837662 133.377969-49.189415 244.054646-137.160862 332.026092C757.511877 805.456738 646.837169 851.808492 513.457231 854.646154L513.457231 854.646154zM811.431385 96.943262c-23.650462 11.352615-49.189415 23.648492-74.730338 26.486154-67.160615 5.675323-108.782277 16.080738-124.863015 32.161477-15.137477 16.082708-21.758031 38.784-18.9184 68.109785 0.945231 17.9712 5.675323 28.376615 16.080738 33.108677 10.405415 4.728123 21.756062 31.216246 33.108677 78.513231 3.784862 14.188308 7.567754 25.540923 12.297846 34.053908 4.728123 8.512985 12.295877 26.486154 21.756062 55.809969 4.730092 20.810831 4.730092 33.108677-0.945231 35.944369-5.675323 2.837662-9.460185 3.784862-10.403446 2.837662L669.538462 484.781292c2.837662 13.243077 4.728123 29.323815 6.620554 47.296985 5.677292 47.296985-3.782892 87.973415-28.378585 122.027323-24.593723 34.999138-69.998277 52.972308-137.160862 54.864738-59.594831-0.945231-90.811077-24.595692-125.810215-53.919508-38.784-30.271015-52.027077-70.945477-41.621662-122.972554 7.567754-38.784 18.9184-70.945477 11.350646-68.107815-0.945231 0.945231-4.728123 0-9.458215-2.837662-4.730092-2.837662-5.675323-15.135508-1.892431-35.944369 10.405415-25.540923 17.973169-43.514092 23.648492-52.974277 5.675323-9.458215 9.458215-21.756062 12.297846-36.8896 9.460185-46.351754 18.9184-71.892677 29.323815-76.6208 10.405415-4.730092 17.025969-17.027938 20.810831-34.999138 4.730092-29.325785-0.945231-52.027077-17.973169-68.109785-17.025969-16.080738-57.7024-26.486154-122.027323-32.161477-23.648492-2.837662-52.027077-14.188308-74.728369-25.540923-72.837908 75.675569-115.4048 175.946831-116.352 286.621538 2.837662 117.297231 43.514092 214.728862 122.027323 293.244062s175.946831 119.187692 293.244062 122.027323c117.295262-2.837662 214.728862-43.514092 292.296862-122.027323 78.513231-78.513231 119.189662-175.946831 122.027323-293.244062C926.834215 271.944862 884.267323 171.675569 811.431385 96.943262z"  horiz-adv-x="1024" />
      
      <glyph glyph-name="help" unicode="&#58900;" d="M512-97.882353C245.850353-97.882353 30.117647 117.850353 30.117647 384S245.850353 865.882353 512 865.882353s481.882353-215.732706 481.882353-481.882353-215.732706-481.882353-481.882353-481.882353z m0 60.235294c232.869647 0 421.647059 188.777412 421.647059 421.647059S744.869647 805.647059 512 805.647059 90.352941 616.869647 90.352941 384s188.777412-421.647059 421.647059-421.647059zM510.132706 117.488941a43.760941 43.760941 0 1 0 0 87.521883 43.760941 43.760941 0 0 0 0-87.521883zM391.830588 462.185412a30.659765 30.659765 0 0 0-30.208 34.42447c1.987765 17.016471 5.150118 30.930824 9.487059 41.743059a124.325647 124.325647 0 0 0 33.400471 46.592 148.961882 148.961882 0 0 0 51.109647 30.238118A180.615529 180.615529 0 0 0 515.132235 624.941176c42.164706 0 77.251765-12.408471 105.321412-37.255529 28.069647-24.756706 42.134588-57.825882 42.134588-99.087059 0-18.552471-3.614118-35.358118-10.842353-50.416941-7.168-15.088941-22.467765-33.882353-45.869176-56.350118-23.461647-22.497882-38.942118-38.490353-46.622118-48.007529a98.243765 98.243765 0 0 1-17.347764-34.063059c-2.108235-6.957176-3.614118-15.179294-4.427295-24.636235-1.445647-15.962353-14.275765-28.611765-30.298353-28.611765a30.659765 30.659765 0 0 0-30.32847 33.641412c1.054118 10.962824 2.650353 20.510118 4.879059 28.641882 4.126118 15.510588 10.390588 29.063529 18.763294 40.658824 8.342588 11.625412 23.401412 28.672 45.17647 51.169882 21.805176 22.467765 35.84 38.851765 42.164706 49.001412 6.204235 10.209882 12.739765 26.804706 12.739765 46.983529s-10.631529 36.592941-24.937412 52.133647c-14.396235 15.540706-35.267765 23.341176-62.644706 23.341177-53.428706 0-83.727059-27.497412-90.834823-82.492235-2.017882-15.480471-14.607059-27.407059-30.208-27.407059h-0.120471z"  horiz-adv-x="1024" />
      
      <glyph glyph-name="image" unicode="&#59122;" d="M907.2 896H121.6C91.2 896 65.6 870.4 65.6 840v-908.8c0-33.6 25.6-59.2 56-59.2h780.8c30.4 0 56 25.6 56 56v912c3.2 30.4-22.4 56-51.2 56z m-30.4-84.8v-465.6c-12.8-8-20.8-12.8-30.4-20.8-25.6-17.6-46.4-38.4-68.8-56-68.8-59.2-115.2-97.6-179.2-72-12.8 4.8-25.6 17.6-43.2 30.4l-4.8 4.8c-38.4 30.4-84.8 68.8-136 84.8-94.4 30.4-174.4-20.8-248-68.8-4.8 0-8-4.8-8-4.8V811.2h718.4zM152-43.2V136c17.6 8 38.4 20.8 56 33.6 64 38.4 120 76.8 179.2 59.2 38.4-12.8 72-38.4 107.2-68.8l4.8-4.8c17.6-17.6 38.4-33.6 68.8-43.2 25.6-8 46.4-12.8 68.8-12.8 81.6 0 145.6 56 196.8 102.4 17.6 12.8 30.4 25.6 43.2 38.4v-286.4H152zM641.6 384c81.6 0 148.8 68.8 148.8 148.8s-68.8 148.8-148.8 148.8-148.8-68.8-148.8-148.8 68.8-148.8 148.8-148.8z m0 212.8c33.6 0 64-30.4 64-64s-30.4-64-64-64-64 30.4-64 64 30.4 64 64 64z"  horiz-adv-x="1024" />
      
      <glyph glyph-name="customer_sercive" unicode="&#59585;" d="M896 320c0-17.632-14.336-32-32-32h-64v192h64c17.664 0 32-14.368 32-32z m-448-192c0 35.296 28.704 64 64 64s64-28.704 64-64-28.704-64-64-64-64 28.704-64 64z m-224 160H160c-17.664 0-32 14.368-32 32v128c0 17.632 14.336 32 32 32h64z m640 256h-65.888C782.176 688 660.224 800 512 800s-270.176-112-286.112-256H160c-52.928 0-96-43.072-96-96v-128c0-52.928 43.072-96 96-96h128v288c0 123.52 100.512 224 224 224s224-100.48 224-224v-224a223.872 223.872 0 0 0-98.56-185.472A128.128 128.128 0 0 1 512 256c-70.592 0-128-57.408-128-128s57.408-128 128-128c137.024 0 251.456 95.776 280.64 224H864c52.928 0 96 43.072 96 96v128c0 52.928-43.072 96-96 96z"  horiz-adv-x="1024" />
      
      <glyph glyph-name="play" unicode="&#58903;" d="M512.137635 830.956611c-247.224638 0-447.515337-200.358237-447.515337-447.515337 0-247.158123 200.290699-447.51636 447.515337-447.51636 247.156076 0 447.51636 200.358237 447.51636 447.51636C959.653995 630.598374 759.293711 830.956611 512.137635 830.956611zM368.810299 170.735825 368.810299 590.076472l363.195929-209.636554L368.810299 170.735825z"  horiz-adv-x="1024" />
      
      <glyph glyph-name="message" unicode="&#59291;" d="M528 96l-210.56-163.744a48 48 0 0 0-77.44 37.888V96h-96a96 96 0 0 0-96 96V704a96 96 0 0 0 96 96h736a96 96 0 0 0 96-96v-512a96 96 0 0 0-96-96h-352z m-224-93.12l184.704 143.648A64 64 0 0 0 528 160h352a32 32 0 0 1 32 32V704a32 32 0 0 1-32 32h-736a32 32 0 0 1-32-32v-512a32 32 0 0 1 32-32h96a64 64 0 0 0 64-64v-93.12zM704 400a48 48 0 1 0 0 96 48 48 0 0 0 0-96z m-192 0a48 48 0 1 0 0 96 48 48 0 0 0 0-96z m-192 0a48 48 0 1 0 0 96 48 48 0 0 0 0-96z"  horiz-adv-x="1024" />
      
      <glyph glyph-name="off" unicode="&#58890;" d="M513.97632 162.43712c-50.91328 0-98.82112 19.1744-140.66688 46.2848l73.14432 73.1392a120.33536 120.33536 0 0 1 67.52256-20.84864c67.9424 0 123.22304 55.27552 123.22304 123.21792a120.33536 120.33536 0 0 1-20.85376 67.52768l78.19776 78.19264c69.9392-58.40384 115.16416-131.34848 115.16416-145.7152 0-24.64768-132.41344-221.7984-295.7312-221.7984m73.9328 221.7984c0-40.832-33.1008-73.9328-73.9328-73.9328-11.38688 0-22.05696 2.78528-31.6416 7.43936l98.12992 98.13504c4.6592-9.58976 7.44448-20.25984 7.44448-31.6416m-369.664 0c0 24.64256 132.41344 221.7984 295.7312 221.7984 50.91328 0 98.82112-19.17952 140.66688-46.2848l-321.2288-321.23392c-69.94432 58.40384-115.16416 131.34848-115.16416 145.7152m511.4112 180.8384l70.33344 70.33856-34.84672 34.84672-75.1872-75.19232c-51.63008 35.072-111.71328 60.25728-175.98464 60.25728C323.94752 655.31904 168.96 437.36064 168.96 384.2304c0-30.336 50.61632-114.29888 129.3312-180.8384l-70.33344-70.33344 34.84672-34.84672 75.1872 75.19232c51.63008-35.072 111.71328-60.25728 175.98464-60.25728 190.0288 0 345.01632 217.95328 345.01632 271.08352 0 30.34112-50.61632 114.304-129.3312 180.8384M513.97632 507.45344c-67.9424 0-123.21792-55.27552-123.21792-123.22304 0-11.8016 2.19136-22.9888 5.29408-33.78688l45.12768 45.12768a73.63584 73.63584 0 0 0 61.46048 61.46048l45.12256 45.12256a121.4976 121.4976 0 0 1-33.78688 5.2992"  horiz-adv-x="1024" />
      
      <glyph glyph-name="zu" unicode="&#58894;" d="M866.329807 541.526293h-708.694309A78.715689 78.715689 0 0 1 78.793256 462.747327v-433.12612a157.494655 157.494655 0 0 1 157.494655-157.494654H787.487565a157.494655 157.494655 0 0 1 157.494655 157.494654V462.747327a78.778966 78.778966 0 0 1-78.652413 78.778966z m-314.98931-413.447198a39.357845 39.357845 0 0 0-78.778966 0V285.57375a39.357845 39.357845 0 0 0 78.778966 0zM511.919376 817.1577580000001a197.042328 197.042328 0 0 0 196.852499-196.852499V541.589569H315.0036V620.3685350000001a197.042328 197.042328 0 0 0 196.8525 196.852499m0 78.778966a275.631465 275.631465 0 0 1-275.568189-275.694741v-157.494655h551.26293V620.305259A275.631465 275.631465 0 0 1 511.919376 895.936724z"  horiz-adv-x="1024" />
      
      <glyph glyph-name="three" unicode="&#58958;" d="M256 352h512v-128h-512v128zM256 576h512v-128h-512v128zM256 128.001h512v-128h-512v128z"  horiz-adv-x="1024" />
      
      <glyph glyph-name="xueximubiao" unicode="&#59025;" d="M911.266055 369.908257h-37.925578A361.598826 361.598826 0 0 0 526.091743 22.668917V-15.266055a14.091743 14.091743 0 0 0-28.183486 0v37.925578A361.598826 361.598826 0 0 0 150.668917 369.908257H112.733945a14.091743 14.091743 0 0 0 0 28.183486h37.934972A361.598826 361.598826 0 0 0 497.908257 745.340477V783.266055a14.091743 14.091743 0 0 0 28.183486 0v-37.925578A361.598826 361.598826 0 0 0 873.331083 398.091743H911.266055a14.091743 14.091743 0 0 0 0-28.183486z m-117.431193 28.183486h51.312734A333.44822 333.44822 0 0 1 526.091743 717.156991V665.834862a14.091743 14.091743 0 0 0-28.183486 0V717.156991A333.44822 333.44822 0 0 1 178.852404 398.091743H230.165138a14.091743 14.091743 0 0 0 0-28.183486H178.852404A333.44822 333.44822 0 0 1 497.908257 50.843009V102.165138a14.091743 14.091743 0 0 0 28.183486 0v-51.312734A333.44822 333.44822 0 0 1 845.156991 369.908257H793.834862a14.091743 14.091743 0 0 0 0 28.183486z m-281.834862-150.311926a136.220183 136.220183 0 1 0 136.220183 136.220183 136.220183 136.220183 0 0 0-136.220183-136.220183z m0 244.25688a108.036697 108.036697 0 1 1 108.036697-108.036697 108.036697 108.036697 0 0 1-108.036697 108.036697z"  horiz-adv-x="1024" />
      
      <glyph glyph-name="ziliao" unicode="&#58925;" d="M919.3655919043739 165.0756342451093L562.9731838847051-32.77085914959025c-28.047847304659747-15.619459677803457-73.73056879544362-15.619459677803457-101.77841610010337 0L104.63440809562604 165.0756342451093c-28.047847304659747 15.619459677803457-28.047847304659747 40.980088558596215 0 56.43159656709267L151.99664075611662 247.87556694715533l274.43223228331715-152.33172219238187c30.73506572852675-17.131020559043947 63.485547346214986-20.6579959486051 85.65510279521975-20.6579959486051 22.001605160538595 0 54.752085397386004 3.526975389561152 85.65510279521975 20.6579959486051L872.0033592438833 247.87556694715533l47.362232660490534-26.20038446564609c28.047847304659747-15.787411347110451 28.047847304659747-40.980088558596215 0-56.599548236399656zM104.63440809562604 546.4927691877979L461.02681611529476 348.64627579309854c28.047847304659747-15.619459677803457 73.73056879544362-15.619459677803457 101.77841610010337 0l356.3924094005096 197.84649339469962c28.047847304659747 15.619459677803457 28.047847304659747 40.980088558596215 0 56.43159656709267L562.9731838847051 800.7708591495901c-28.047847304659747 15.619459677803457-73.73056879544362 15.619459677803457-101.77841610010337 0L104.63440809562604 602.9243657548906c-28.215798973966745-15.619459677803457-28.215798973966745-40.81213688928922 0-56.43159656709267z m814.7311838087479-134.1929943791776L872.0033592438833 438.50015927426625l-274.43223228331715-152.3317235732227c-30.73506572852675-17.131020559043947-63.485547346214986-20.6579959486051-85.65510279521975-20.65799456776428-22.001605160538595 0-54.752085397386004 3.526975389561152-85.65510279521975 20.65799456776428L151.99664075611662 438.50015927426625l-47.362232660490534-26.20038446564609c-28.047847304659747-15.619459677803457-28.047847304659747-40.980088558596215 0-56.43159794793349l356.3924080196688-197.84649201385875c28.047847304659747-15.619459677803457 73.73056879544362-15.619459677803457 101.77841610010337 0l356.3924094005096 197.84649201385875c28.215798973966745 15.451509389337282 28.215798973966745 40.81213688928922 0.16795028846617288 56.43159794793349z"  horiz-adv-x="1024" />
      
      <glyph glyph-name="xiangmufenxi1" unicode="&#59549;" d="M951.854545 802.909091c-39.563636 0-72.145455-32.581818-72.145454-72.145455 0-9.309091 2.327273-20.945455 6.981818-30.254545l-225.745454-421.236364c-4.654545 0-6.981818 2.327273-11.636364 2.327273-11.636364 0-23.272727-4.654545-32.581818-9.309091l-169.890909 169.890909c2.327273 4.654545 4.654545 11.636364 4.654545 18.618182 0 39.563636-32.581818 72.145455-72.145454 72.145455s-72.145455-32.581818-72.145455-72.145455c0-6.981818 2.327273-13.963636 4.654545-20.945455l-107.054545-107.054545c-9.309091 2.327273-16.290909 4.654545-23.272727 4.654545-39.563636 0-72.145455-32.581818-72.145455-72.145454 0-39.563636 32.581818-72.145455 72.145455-72.145455s72.145455 32.581818 72.145454 72.145455c0 9.309091-2.327273 20.945455-6.981818 27.927273l102.4 102.4c9.309091-4.654545 18.618182-6.981818 27.927273-6.981819 11.636364 0 20.945455 2.327273 30.254545 6.981819l172.218182-172.218182c-2.327273-4.654545-2.327273-9.309091-2.327273-16.290909 0-39.563636 32.581818-72.145455 72.145455-72.145455 39.563636 0 72.145455 32.581818 72.145454 72.145455 0 13.963636-4.654545 25.6-11.636363 37.236363l223.418182 418.909091c6.981818-2.327273 11.636364-4.654545 18.618181-4.654545 39.563636 0 72.145455 32.581818 72.145455 72.145454C1024 770.327273 991.418182 802.909091 951.854545 802.909091zM62.836364 795.927273H0V-34.909091h977.454545v62.836364H62.836364z"  horiz-adv-x="1024" />
      
      <glyph glyph-name="san" unicode="&#58889;" d="M145.3056 664.610133H907.946667c17.339733 0 31.573333 15.086933 31.573333 33.4848 0 18.5344-14.2336 33.621333-31.573333 33.621334H145.3056c-17.6128 0-31.709867-15.086933-31.709867-33.621334 0-18.397867 14.097067-33.4848 31.709867-33.4848zM907.946667 413.115733H145.3056c-17.6128 0-31.709867-14.984533-31.709867-33.518933 0-18.568533 14.097067-33.553067 31.709867-33.553067H907.946667c17.339733 0 31.573333 14.984533 31.573333 33.553067-0.034133 18.5344-14.267733 33.518933-31.573333 33.518933z m0-331.502933H145.3056c-17.6128 0-31.709867-15.018667-31.709867-33.655467 0-18.397867 14.097067-33.416533 31.709867-33.416533H907.946667c17.339733 0 31.573333 15.018667 31.573333 33.416533-0.034133 18.602667-14.267733 33.655467-31.573333 33.655467z"  horiz-adv-x="1024" />
      
      <glyph glyph-name="AK-YKfangkuai_fill" unicode="&#58883;" d="M511.93882301 871.21794643l-487.18735793-487.18735792 487.24853492-487.24853494L999.18735793 383.96941148999997 511.93882301 871.21794643z"  horiz-adv-x="1024" />
      
      <glyph glyph-name="san1" unicode="&#58921;" d="M64 896h1280a64 64 0 0 0 0-128H64a64 64 0 0 0 0 128z m0-448h1280a64 64 0 0 0 0-128H64a64 64 0 0 0 0 128z m0-448h1280a64 64 0 0 0 0-128H64a64 64 0 0 0 0 128z"  horiz-adv-x="1408" />
      
      <glyph glyph-name="san2" unicode="&#58898;" d="M145.306 664.61h762.64c17.34 0 31.574 15.087 31.574 33.485 0 18.534-14.234 33.621-31.573 33.621H145.306c-17.613 0-31.71-15.087-31.71-33.621 0-18.398 14.097-33.485 31.71-33.485z m762.64-251.494h-762.64c-17.613 0-31.71-14.985-31.71-33.52 0-18.568 14.097-33.552 31.71-33.552h762.64c17.34 0 31.574 14.984 31.574 33.553-0.034 18.534-14.268 33.519-31.573 33.519z m0-331.503h-762.64c-17.613 0-31.71-15.019-31.71-33.656 0-18.398 14.097-33.416 31.71-33.416h762.64c17.34 0 31.574 15.018 31.574 33.416-0.034 18.603-14.268 33.656-31.573 33.656z"  horiz-adv-x="1024" />
      
      <glyph glyph-name="remen" unicode="&#59593;" d="M423.477333-42.666667S45.045333 40.576 214.186667 453.717333c0 0 38.4-45.909333 33.12-68 0 0 30.101333 104.277333 95.072 166.570667C398.165333 605.813333 454.848 756.288 402.570667 810.666667c0 0 258.933333-54.378667 287.754666-326.378667 0 0 33.12 86.666667 101.12 95.232 0 0-20.906667-47.616 0-119.04 0 0 214.485333-367.146667-155.157333-491.242667 0 0 110.805333 125.813333-124.181333 341.717334 0 0-55.402667-115.626667-88.533334-156.373334-0.096-0.106667-92.522667-103.722667-0.096-197.248z"  horiz-adv-x="1024" />
      
      <glyph glyph-name="integral" unicode="&#59129;" d="M168.106667 274.56l120.746666-57.962667 223.274667-108.138666 215.317333 104.32 128.768 61.674666a64 64 0 0 0-29.952-84.970666l-286.229333-138.624a64 64 0 0 0-55.808 0L197.994667 189.482667A64 64 0 0 0 168.106667 274.56z m687.829333 133.930667a64 64 0 0 0-29.674667-85.546667L540.010667 184.32a64 64 0 0 0-55.808 0L197.994667 322.944A64 64 0 0 0 166.826667 405.12l317.013333-149.525333 28.288-13.696 286.229333 138.624-0.149333 0.064 57.728 27.882666zM540.032 710.208l286.208-138.602667a64 64 0 0 0 0-115.2l-286.208-138.624a64 64 0 0 0-55.808 0L197.994667 456.405333a64 64 0 0 0 0 115.2L484.224 710.186667a64 64 0 0 0 55.808 0z m-27.904-57.6l-286.229333-138.602667 286.229333-138.624 286.229333 138.624-286.229333 138.602667z"  horiz-adv-x="1024" />
      
      <glyph glyph-name="san3" unicode="&#58881;" d="M145.3056 664.610133H907.946667c17.339733 0 31.573333 15.086933 31.573333 33.4848 0 18.5344-14.2336 33.621333-31.573333 33.621334H145.3056c-17.6128 0-31.709867-15.086933-31.709867-33.621334 0-18.397867 14.097067-33.4848 31.709867-33.4848zM907.946667 413.115733H145.3056c-17.6128 0-31.709867-14.984533-31.709867-33.518933 0-18.568533 14.097067-33.553067 31.709867-33.553067H907.946667c17.339733 0 31.573333 14.984533 31.573333 33.553067-0.034133 18.5344-14.267733 33.518933-31.573333 33.518933z m0-331.502933H145.3056c-17.6128 0-31.709867-15.018667-31.709867-33.655467 0-18.397867 14.097067-33.416533 31.709867-33.416533H907.946667c17.339733 0 31.573333 15.018667 31.573333 33.416533-0.034133 18.602667-14.267733 33.655467-31.573333 33.655467z"  horiz-adv-x="1024" />
      
      <glyph glyph-name="ziliao1" unicode="&#58882;" d="M83.5 567.9l415.3-226.3c4.2-2.3 8.8-3.4 13.4-3.4 4.5 0 9.1 1.1 13.3 3.4l419.7 226.3c9.2 4.9 14.8 14.5 14.7 25-0.1 10.4-6 19.9-15.3 24.6L529.3 828.5c-7.9 4-17.3 4-25.3 0L84.4 617.4c-9.3-4.7-15.3-14.1-15.4-24.6C68.8 582.5 74.4 572.8 83.5 567.9zM516.5 778.2l361.1-186.5L512.3 391.9 151.2 591.5 516.5 778.2zM939.8 411.7l-83 42.2-53.9-32.3 69.9-35.5L507.5 186.20000000000005 146.4 385.8l74.5 37.5-53.7 32.6-87.7-44.1c-9.3-4.7-15.3-14.1-15.4-24.5-0.2-10.4 5.5-20.1 14.6-25L494 135.89999999999998c4.2-2.3 8.8-3.4 13.4-3.4 4.5 0 9.1 1.1 13.3 3.4l419.7 226.3c9.2 4.9 14.8 14.6 14.7 25C954.9 397.5 949 407 939.8 411.7zM939.8 215.79999999999995l-78.7 38.7-11.2-32.3 22.9-32L507.5-9.700000000000045 146.4 189.79999999999995l26.6 31.4-11 32.6-82.5-38c-9.3-4.7-15.3-14.1-15.4-24.5-0.2-10.4 5.5-20.1 14.6-25.1L494-60.10000000000002c4.2-2.3 8.8-3.4 13.4-3.4 4.5 0 9.1 1.1 13.3 3.4l419.7 226.3c9.2 4.9 14.8 14.5 14.7 25C954.9 201.60000000000002 949 211 939.8 215.79999999999995z"  horiz-adv-x="1024" />
      
      <glyph glyph-name="geren" unicode="&#59036;" d="M0 896h1024v-1024H0zM612.832-80H427.168C251.072-80 112-80 112 10.464v18.08C112 198.112 253.408 336 427.168 336h185.648C786.576 336 928 198.08 928 28.56v-18.096C927.968-80 781.888-80 612.832-80zM504 352C367.216 352 256 463.264 256 600.016S367.232 848 504 848 752 736.768 752 600.016 640.752 352 504 352z"  horiz-adv-x="1024" />
      
      <glyph glyph-name="sandian" unicode="&#58880;" d="M512-128c-59.733 0-106.667 46.933-106.667 106.667S452.267 85.33299999999997 512 85.33299999999997 618.667 38.39999999999998 618.667-21.33299999999997 571.733-128 512-128z m0 810.667c-59.733 0-106.667 46.933-106.667 106.666S452.267 896 512 896s106.667-46.933 106.667-106.667S571.733 682.667 512 682.667z m0-405.334c-59.733 0-106.667 46.934-106.667 106.667S452.267 490.667 512 490.667 618.667 443.733 618.667 384 571.733 277.33299999999997 512 277.33299999999997z"  horiz-adv-x="1024" />
      
      <glyph glyph-name="icon_hengxx" unicode="&#59440;" d="M950.857143 310.857143H73.142857c-40.228571 0-73.142857 32.914286-73.142857 73.142857s32.914286 73.142857 73.142857 73.142857h877.714286c40.228571 0 73.142857-32.914286 73.142857-73.142857s-32.914286-73.142857-73.142857-73.142857z"  horiz-adv-x="1024" />
      
      <glyph glyph-name="icon_quan" unicode="&#58932;" d="M512 896a512 512 0 1 0 0-1024A512 512 0 0 0 512 896z m0-64a448 448 0 1 1 0-896A448 448 0 0 1 512 832z"  horiz-adv-x="1024" />
      
      <glyph glyph-name="xiangmufenxi" unicode="&#59324;" d="M853.384306 327.18343h56.823152a455.097135 455.097135 0 1 0-455.024003 455.024003v-455.024003h398.200851z m-426.648993-56.896283h422.553631a398.12772 398.12772 0 1 0-451.001772 451.001772v-451.001772h28.521273zM1009.81252 384.079713H1024.000025a511.920287 511.920287 0 0 1-511.920287 511.920287v-511.920287H1009.81252z m-440.836499 56.896284h394.544279A455.097135 455.097135 0 0 1 568.976021 835.520275v-394.544278z"  horiz-adv-x="1024" />
      
    </font>
</defs>
</svg>
